<?xml version="1.0" standalone="no"?>
<!DOCTYPE svg PUBLIC "-//W3C//DTD SVG 20010904//EN"
 "http://www.w3.org/TR/2001/REC-SVG-20010904/DTD/svg10.dtd">
<svg version="1.0" xmlns="http://www.w3.org/2000/svg"
 width="1930.000000pt" height="2048.000000pt" viewBox="0 0 1930.000000 2048.000000"
 preserveAspectRatio="xMidYMid meet">

<g transform="translate(0.000000,2048.000000) scale(0.100000,-0.100000)"
fill="#000000" stroke="none">
<path d="M9130 19314 c-784 -53 -1428 -174 -2200 -410 -610 -188 -1304 -500
-1915 -861 -191 -114 -449 -283 -650 -427 -123 -87 -454 -343 -510 -393 -12
-10 -50 -43 -85 -73 -1359 -1150 -2382 -2747 -2861 -4462 -146 -525 -244
-1037 -293 -1538 -47 -471 -61 -853 -46 -1235 65 -1660 520 -3147 1394 -4559
372 -600 902 -1248 1429 -1747 693 -656 1441 -1178 2272 -1584 981 -480 1978
-768 3060 -884 320 -34 446 -42 819 -48 1211 -20 2356 187 3491 630 1710 669
3225 1891 4242 3422 65 99 128 194 139 212 218 360 332 565 465 838 442 908
718 1822 854 2825 92 678 99 1502 20 2200 -48 431 -141 936 -234 1282 -77 282
-143 498 -223 728 -320 912 -805 1805 -1392 2560 -255 328 -491 595 -782 885
-638 637 -1383 1184 -2184 1605 -1330 698 -2787 1055 -4283 1049 -183 -1 -420
-8 -527 -15z m-471 -1101 c30 -92 38 -129 30 -134 -7 -4 -71 -26 -143 -49
-175 -56 -227 -75 -227 -83 0 -8 112 -362 136 -432 8 -22 57 -175 110 -340 53
-165 110 -339 126 -387 16 -47 31 -95 33 -105 2 -10 22 -71 45 -137 23 -65 41
-126 41 -135 1 -40 13 -41 120 -6 57 19 108 31 112 27 5 -5 88 -248 88 -258 0
-1 -120 -41 -267 -89 -148 -47 -313 -101 -368 -120 -169 -56 -140 -79 -225
183 -40 125 -92 286 -116 357 -23 72 -77 238 -119 370 -42 132 -80 243 -84
248 -4 4 -32 -1 -62 -11 -42 -15 -61 -28 -84 -61 -42 -59 -37 -113 25 -301 27
-83 51 -158 52 -166 2 -10 -10 -21 -32 -29 -63 -24 -382 -125 -395 -125 -14 0
-25 28 -85 215 -52 162 -75 198 -138 216 -82 23 -145 5 -212 -61 -42 -41 -50
-96 -24 -171 10 -30 19 -58 20 -64 2 -10 38 -119 140 -430 52 -158 78 -195
153 -219 100 -32 121 -31 260 15 72 24 132 41 134 39 2 -3 7 -61 10 -130 l6
-125 -212 -68 c-117 -38 -223 -73 -236 -78 -46 -19 -163 -39 -224 -39 -110 0
-215 46 -256 113 -11 19 -32 67 -45 108 -20 60 -146 448 -279 858 -29 90 -16
150 53 239 120 157 339 266 595 297 75 9 176 -12 298 -61 59 -24 112 -44 116
-44 5 0 11 24 13 54 2 30 16 78 32 109 31 65 78 99 208 152 50 21 82 40 80 47
-2 7 -5 20 -7 28 -2 8 -24 78 -49 155 -25 76 -46 144 -46 150 -1 39 -16 37
-221 -30 -112 -37 -228 -75 -257 -86 -28 -10 -54 -19 -57 -18 -5 0 -353 -111
-645 -207 -74 -24 -218 -71 -319 -104 -101 -33 -189 -60 -195 -60 -11 0 -86
222 -86 253 0 10 7 17 15 17 15 0 174 50 430 135 174 58 639 207 645 207 3 0
41 13 85 28 82 29 497 163 955 310 140 45 305 99 365 120 61 21 117 38 126 39
13 1 27 -30 58 -126z m1882 108 c96 -21 289 -67 499 -117 296 -71 558 -133
592 -139 12 -3 35 -9 52 -14 17 -6 45 -12 61 -15 44 -7 163 -36 214 -52 25 -8
53 -14 64 -14 11 0 43 -6 71 -14 28 -8 80 -22 116 -30 36 -8 99 -22 140 -32
41 -9 107 -25 145 -34 39 -10 115 -28 171 -41 l100 -23 -23 -95 c-13 -53 -26
-113 -30 -133 -3 -24 -11 -38 -20 -38 -15 0 -189 40 -263 60 -19 5 -53 12 -75
16 -22 3 -43 8 -46 10 -3 2 -14 -27 -23 -64 -10 -37 -24 -94 -33 -127 -8 -32
-16 -68 -18 -80 -1 -11 -8 -40 -15 -65 -7 -25 -14 -54 -15 -65 -2 -11 -17 -78
-35 -150 -32 -133 -61 -253 -125 -525 -20 -85 -50 -211 -66 -280 -17 -69 -37
-152 -45 -185 -7 -32 -10 -62 -6 -66 6 -6 92 -28 170 -44 18 -4 36 -13 39 -21
5 -13 -10 -84 -44 -211 -16 -61 -19 -62 -116 -37 -34 8 -87 22 -117 29 -57 15
-435 104 -527 125 -55 12 -60 20 -44 63 5 13 12 41 15 62 4 21 13 61 20 89 32
119 49 206 43 213 -4 3 -42 -2 -85 -12 -202 -49 -493 0 -748 125 -172 85 -291
225 -302 354 -2 35 6 91 27 176 43 181 87 364 106 446 l16 70 62 -8 c148 -18
233 44 271 197 10 39 22 86 27 106 13 52 11 100 -6 150 -31 86 -104 135 -255
170 -50 11 -90 25 -90 31 0 5 6 33 14 61 14 54 35 143 41 174 4 23 4 23 8 23
2 0 41 -8 88 -19z m3334 -1183 c138 -91 351 -231 475 -312 124 -82 236 -156
250 -165 14 -10 115 -78 225 -151 110 -73 201 -134 203 -136 7 -4 -143 -224
-153 -224 -5 0 -84 49 -175 109 -181 120 -166 116 -205 49 -5 -10 -35 -55 -66
-100 -31 -46 -172 -258 -314 -473 -142 -214 -311 -470 -376 -569 -114 -170
-128 -196 -111 -196 6 0 168 -103 179 -114 2 -2 -18 -37 -45 -77 -27 -41 -61
-93 -76 -116 -14 -24 -31 -43 -36 -43 -5 0 -96 58 -202 128 -106 71 -259 172
-341 226 -103 68 -145 101 -140 110 5 7 48 72 96 144 49 72 86 135 83 140 -5
8 -43 17 -101 24 -96 11 -371 170 -456 264 -42 46 -96 131 -110 171 -21 61
-17 205 7 268 10 25 261 409 423 647 38 56 123 103 204 113 43 5 68 1 147 -25
52 -17 97 -35 100 -38 3 -4 31 -20 64 -37 95 -49 121 -78 151 -175 15 -47 32
-98 39 -115 7 -16 30 -83 52 -147 21 -65 41 -114 45 -110 17 19 319 483 318
490 0 4 -71 53 -157 110 -207 135 -742 489 -764 504 -16 11 -16 15 6 53 28 47
88 139 112 172 l16 22 192 -128 c105 -70 304 -202 441 -293z m-8500 -138 c11
-15 35 -39 53 -54 17 -15 32 -34 32 -41 0 -7 -71 -77 -157 -156 -87 -79 -205
-189 -263 -245 -58 -56 -178 -168 -267 -249 -90 -81 -163 -151 -163 -156 0 -4
24 -31 53 -61 28 -29 101 -106 162 -171 104 -112 110 -117 119 -95 62 151 181
314 308 424 195 167 429 154 602 -34 34 -37 122 -132 195 -211 157 -169 181
-211 176 -311 -1 -36 -11 -88 -22 -116 -27 -70 -114 -183 -217 -283 -84 -81
-87 -83 -125 -77 -38 6 -121 29 -174 49 -28 10 -28 10 -8 31 22 24 66 109 76
146 10 40 -9 74 -83 152 -38 40 -109 117 -158 171 -85 94 -145 137 -190 137
-37 -1 -99 -37 -141 -83 -47 -51 -93 -135 -93 -169 0 -15 27 -51 78 -103 43
-44 133 -141 202 -215 68 -74 182 -197 254 -272 l131 -138 78 78 78 77 94
-100 93 -100 -46 -49 -47 -49 50 29 c28 15 138 79 245 142 312 184 317 186
437 190 145 6 222 -18 298 -93 36 -34 67 -78 88 -122 30 -64 32 -75 31 -173 0
-122 -16 -170 -92 -284 -109 -162 -265 -292 -510 -425 -212 -114 -424 -168
-705 -178 -175 -6 -170 -8 -208 63 -9 16 -42 73 -74 127 -31 54 -55 101 -51
104 3 3 70 1 148 -4 160 -12 417 4 500 30 26 8 49 13 51 11 5 -6 117 41 174
72 85 48 129 82 187 146 104 116 128 207 71 269 -55 58 -121 72 -221 45 -77
-20 -209 -93 -269 -148 l-53 -48 -16 25 c-9 13 -16 27 -16 30 0 3 -16 32 -37
63 -20 31 -41 69 -47 84 l-12 27 -89 -88 c-140 -135 -375 -351 -384 -351 -4 0
-35 30 -69 68 -96 107 -162 175 -166 171 -2 -2 -20 -37 -40 -78 -99 -202 -286
-374 -445 -411 -81 -19 -169 -8 -246 30 -72 36 -153 115 -433 419 -135 147
-154 172 -176 233 -60 161 -8 322 159 491 93 94 250 187 317 187 55 1 45 16
-95 163 l-142 148 -65 -63 c-36 -35 -124 -117 -195 -182 -72 -66 -197 -184
-280 -262 -82 -78 -165 -155 -184 -170 l-34 -29 -89 94 c-48 52 -88 98 -88
102 0 12 46 57 245 239 105 96 206 191 225 210 19 20 94 89 165 155 72 65 168
155 215 200 47 45 175 164 285 265 110 100 218 201 240 224 22 23 121 115 220
206 99 90 240 222 314 292 l134 128 41 -37 c22 -20 50 -49 61 -63z m10000
-1037 c32 -38 65 -75 74 -83 9 -8 56 -62 105 -120 49 -58 115 -134 146 -170
59 -66 80 -90 288 -330 64 -74 123 -142 132 -152 43 -48 43 -48 15 -70 -15
-12 -35 -29 -44 -38 -9 -9 -42 -38 -73 -64 -58 -48 -58 -48 -75 -28 -10 11
-69 79 -132 151 l-114 131 -69 -63 c-38 -34 -106 -93 -151 -130 -45 -38 -113
-97 -152 -132 -38 -35 -95 -85 -126 -112 -31 -26 -118 -102 -194 -168 -158
-138 -270 -236 -449 -389 l-127 -109 29 -31 c16 -17 47 -51 70 -76 23 -25 42
-50 42 -56 0 -6 -39 -45 -87 -85 -137 -116 -122 -108 -152 -73 -182 212 -267
311 -277 319 -6 6 -51 57 -100 115 -49 58 -97 113 -106 122 -25 25 -23 32 15
63 17 15 52 46 77 69 25 23 88 77 140 120 52 43 104 88 115 100 11 11 65 59
120 106 55 46 111 95 125 108 39 35 48 43 165 142 61 52 121 105 135 118 14
14 58 52 98 85 39 33 72 64 72 68 0 5 7 9 15 9 8 0 15 4 15 9 0 4 39 41 87 80
47 40 118 101 157 136 39 34 82 72 95 82 29 24 29 25 -75 139 -79 88 -89 103
-78 114 38 37 180 159 185 160 4 0 33 -30 64 -67z m-4950 -98 c41 -77 145
-236 181 -275 12 -14 45 -51 72 -83 86 -99 187 -180 282 -224 121 -57 166 -67
290 -68 102 0 119 3 151 22 43 27 59 59 59 119 0 58 -28 112 -85 162 -52 46
-200 121 -287 147 -32 9 -58 21 -58 26 0 7 88 205 97 218 2 4 290 -117 308
-130 6 -4 57 -27 115 -52 201 -86 243 -110 302 -167 121 -120 165 -284 113
-429 -39 -110 -125 -202 -231 -246 -64 -27 -79 -29 -224 -32 -128 -2 -170 1
-240 17 -267 64 -513 185 -695 344 -101 88 -225 228 -292 332 l-53 80 56 130
c77 179 86 196 94 187 4 -4 24 -39 45 -78z m-320 -965 c520 -52 925 -150 1378
-332 624 -251 1147 -597 1627 -1078 397 -396 680 -790 924 -1284 340 -688 506
-1398 506 -2166 0 -632 -113 -1215 -352 -1822 -64 -162 -231 -501 -327 -661
-372 -623 -859 -1141 -1456 -1549 -676 -462 -1443 -737 -2294 -823 -206 -20
-684 -20 -892 0 -627 62 -1158 211 -1694 475 -396 194 -690 385 -1015 659
-155 130 -427 400 -550 546 -51 61 -102 121 -114 135 -102 121 -307 422 -411
605 -338 595 -536 1192 -622 1880 -26 205 -26 918 0 1120 66 508 174 908 378
1395 40 95 223 451 284 550 558 914 1356 1602 2322 2001 469 194 921 302 1493
358 170 17 612 12 815 -9z m-6941 -140 c34 -20 78 -45 99 -54 20 -10 37 -23
37 -30 0 -6 -43 -85 -95 -176 -52 -91 -95 -168 -95 -171 0 -4 37 -28 83 -54
120 -71 528 -306 557 -322 95 -53 582 -334 622 -359 21 -13 40 -24 44 -24 4 0
33 -16 66 -36 32 -20 60 -35 62 -33 1 2 23 40 49 84 26 44 51 86 56 93 7 11
31 2 113 -44 160 -88 153 -62 62 -220 -44 -76 -92 -160 -107 -188 -15 -28 -52
-91 -81 -141 -29 -49 -72 -123 -95 -162 -23 -40 -46 -73 -52 -73 -5 0 -117 61
-247 136 -130 75 -250 145 -267 154 -16 10 -106 61 -200 115 -93 54 -199 115
-235 135 -75 42 -518 298 -570 329 -19 11 -45 25 -57 30 -12 6 -40 21 -62 35
l-40 26 -20 -29 c-12 -16 -21 -31 -21 -34 0 -4 -96 -173 -105 -185 -2 -2 -32
15 -68 37 -36 22 -89 52 -116 66 -54 27 -60 38 -37 70 7 11 27 45 44 75 61
111 121 215 132 227 5 7 10 14 10 17 0 5 89 161 163 285 12 19 16 32 11 28 -6
-3 -66 -89 -134 -191 l-124 -186 -126 -51 c-69 -28 -186 -77 -260 -109 -157
-67 -555 -232 -722 -300 -27 -11 -48 -16 -48 -11 0 5 25 44 55 87 30 44 80
117 112 164 132 194 203 296 218 311 8 8 90 43 182 77 93 33 281 102 418 152
138 50 259 95 270 99 17 8 65 26 204 76 30 11 46 33 124 169 102 177 88 170
191 106z m13820 -998 c4 -7 43 -136 111 -372 18 -63 63 -218 100 -345 37 -126
71 -243 76 -260 4 -16 24 -86 44 -155 20 -69 41 -138 45 -155 14 -49 30 -104
66 -225 36 -122 53 -181 79 -270 8 -30 22 -77 30 -105 8 -27 26 -88 39 -135
14 -47 43 -146 65 -221 23 -75 41 -144 41 -153 0 -10 -15 -19 -42 -26 -24 -6
-81 -22 -127 -36 -45 -14 -85 -23 -87 -21 -2 2 -14 37 -25 78 -49 169 -90 303
-93 306 -1 2 -54 -12 -117 -31 -63 -19 -150 -44 -194 -56 -44 -12 -92 -27
-107 -32 -14 -5 -41 -13 -60 -18 -18 -4 -136 -38 -263 -75 -126 -37 -250 -73
-275 -80 -25 -6 -61 -17 -80 -24 -30 -10 -337 -99 -365 -105 -40 -10 -125 -38
-125 -42 0 -3 14 -50 30 -106 33 -111 33 -110 -30 -128 -158 -45 -214 -60
-218 -55 -3 2 -11 26 -18 52 -11 42 -71 250 -173 603 -17 58 -31 110 -31 116
0 6 17 16 38 22 20 5 91 26 157 45 66 19 228 66 360 105 l240 69 -2 29 c-1 29
-15 81 -53 209 -35 113 -53 185 -48 190 10 10 318 98 323 93 2 -2 17 -52 35
-113 35 -124 41 -142 71 -237 24 -79 2 -77 199 -18 69 20 184 54 255 75 72 20
148 43 170 50 22 7 55 16 72 20 18 3 35 11 38 16 4 5 -6 48 -20 97 -14 48 -33
112 -41 142 -9 30 -21 73 -29 95 -7 22 -16 52 -19 67 -3 15 -10 38 -15 51
l-10 25 -63 -18 c-200 -57 -323 -93 -403 -117 -143 -44 -198 -35 -287 45 -49
44 -193 211 -230 265 -14 21 -28 35 -31 30 -2 -4 -8 -39 -11 -78 -9 -84 -39
-203 -66 -253 -41 -80 -58 -90 -222 -139 -183 -53 -213 -67 -241 -113 -18 -28
-22 -50 -22 -110 1 -69 3 -87 20 -140 5 -16 -4 -22 -67 -40 -40 -12 -93 -28
-117 -36 -70 -22 -77 -20 -91 34 -17 63 -38 137 -55 192 -35 115 -68 247 -86
342 -15 80 -4 160 33 235 31 63 100 100 274 149 263 73 315 98 352 169 14 27
19 105 10 158 -2 14 9 23 47 37 60 21 228 70 241 70 6 0 15 -20 22 -44 19 -74
90 -166 151 -198 67 -35 114 -36 228 -2 82 24 157 45 228 64 26 7 116 34 195
59 14 5 24 12 24 17 -1 5 -21 74 -44 154 -23 80 -44 156 -46 169 -3 13 -9 32
-14 42 -17 30 -12 35 53 54 121 35 162 47 172 50 18 6 24 5 29 -3z m-14711
-492 c150 -37 159 -40 153 -55 -7 -18 -54 -206 -61 -242 -3 -15 -11 -52 -19
-80 l-14 -53 51 -14 c29 -7 138 -34 242 -60 586 -141 778 -187 1040 -251 194
-48 208 -51 260 -61 l30 -5 20 83 c10 46 21 92 22 102 2 11 6 22 8 24 8 9 275
-60 275 -70 0 -6 -11 -56 -25 -112 -13 -55 -38 -159 -55 -231 -17 -71 -44
-182 -60 -245 -15 -63 -31 -132 -35 -154 l-6 -38 -40 6 c-38 6 -155 34 -534
126 -88 21 -245 59 -350 85 -104 25 -244 58 -310 74 -758 185 -672 167 -678
144 -3 -10 -15 -58 -26 -108 -12 -49 -32 -133 -45 -185 -13 -52 -22 -96 -21
-98 2 -2 47 -14 101 -27 966 -234 952 -230 992 -262 19 -16 49 -53 66 -83 30
-53 31 -59 31 -175 -1 -184 -48 -332 -139 -432 -61 -67 -101 -91 -174 -104
-51 -9 -73 -8 -144 9 -45 12 -136 33 -200 49 -87 20 -118 31 -118 43 0 8 13
65 29 125 16 61 32 131 36 155 l7 45 -119 28 c-65 15 -143 34 -173 42 -179 47
-311 76 -320 70 -5 -3 -10 -14 -10 -23 0 -23 -87 -373 -95 -380 -6 -6 -85 11
-203 44 l-53 15 6 37 c4 20 13 60 20 87 8 28 16 64 20 82 3 18 9 43 14 56 5
13 12 41 15 63 4 21 12 59 20 84 7 25 21 79 30 120 9 41 24 100 31 130 8 30
26 105 40 165 14 61 34 144 45 185 10 41 21 86 24 100 2 14 16 70 30 125 13
55 39 159 56 230 180 749 202 835 217 835 7 0 51 -9 96 -20z m16001 -1222 c3
-29 6 -75 6 -103 0 -27 7 -108 15 -180 8 -71 16 -165 18 -207 l4 -76 -86 -6
c-47 -3 -149 -12 -226 -20 -104 -10 -142 -11 -147 -2 -4 6 -8 40 -8 76 0 36
-7 121 -14 190 -8 69 -17 173 -21 232 -5 97 -4 107 12 112 10 3 90 10 178 16
88 7 162 13 164 16 2 2 25 4 51 4 l47 0 7 -52z m-1744 -1260 c22 1 263 -28
268 -32 4 -5 -16 -268 -24 -313 -6 -32 3 -40 39 -34 4 1 67 -6 140 -14 72 -9
168 -18 212 -21 44 -3 113 -9 154 -14 41 -6 76 -8 78 -6 3 2 8 57 13 123 10
142 30 296 39 304 6 6 252 -19 259 -26 2 -2 -3 -68 -12 -147 -8 -78 -22 -217
-30 -308 -9 -91 -22 -241 -31 -335 -9 -93 -24 -258 -35 -365 -10 -107 -26
-274 -35 -370 -49 -547 -77 -814 -86 -824 -12 -14 -250 16 -257 32 -3 8 2 83
11 166 10 83 17 168 17 188 l0 37 -52 5 c-57 5 -298 27 -568 52 -91 8 -228 22
-305 30 -77 8 -171 16 -210 19 -38 2 -131 11 -205 19 -74 8 -174 17 -221 21
l-86 6 -7 -47 c-3 -26 -6 -76 -6 -112 l0 -65 -77 8 c-43 4 -109 10 -148 14
-38 3 -70 9 -69 14 2 13 24 245 39 412 8 88 20 213 26 278 l12 118 36 -5 c20
-3 70 -8 111 -11 41 -2 140 -11 220 -19 80 -9 222 -22 315 -31 265 -24 476
-44 645 -60 165 -16 432 -41 543 -50 65 -6 67 -5 68 17 1 27 4 58 24 229 8 70
13 134 9 142 -6 17 -36 24 -139 32 -121 10 -394 36 -545 51 -79 9 -174 17
-210 20 -164 10 -199 18 -240 54 -14 12 -30 25 -36 28 -20 13 -62 96 -75 152
-19 77 -16 229 5 325 40 176 117 276 246 316 14 4 57 5 95 2 39 -4 77 -6 85
-5z m-12754 -940 c14 -51 50 -190 80 -308 31 -118 64 -248 75 -289 10 -41 19
-77 19 -81 0 -6 -119 -43 -135 -42 -2 1 -19 -4 -37 -9 -31 -9 -281 -74 -533
-139 -60 -15 -200 -51 -310 -80 -110 -28 -222 -57 -250 -64 -41 -10 -49 -15
-47 -31 6 -37 54 -229 63 -252 5 -13 11 -38 14 -56 6 -28 36 -146 55 -207 l7
-25 6 25 c4 14 9 47 11 74 4 37 15 65 43 105 71 102 91 112 369 181 106 27
128 29 169 20 175 -39 346 -283 421 -600 60 -252 58 -455 -6 -580 -29 -58 -87
-113 -136 -128 -80 -25 -265 -72 -283 -72 -23 0 -25 4 -56 138 -14 59 -38 156
-54 217 -17 60 -29 111 -27 112 1 2 55 16 119 33 158 40 170 47 203 120 27 61
-4 176 -58 215 -53 37 -90 38 -220 5 -266 -66 -304 -87 -355 -195 -25 -54 -28
-70 -28 -170 l0 -110 -100 -27 c-55 -15 -107 -27 -117 -28 -11 0 -19 14 -27
48 -7 26 -12 50 -12 54 0 4 -5 22 -10 40 -13 44 -106 403 -130 503 -11 44 -26
104 -35 133 -8 29 -33 123 -54 208 -21 86 -41 158 -43 161 -4 3 -297 -65 -304
-71 -1 -1 44 -180 117 -461 29 -110 56 -216 60 -235 4 -19 26 -107 49 -195 23
-88 63 -239 88 -335 24 -96 58 -227 75 -290 17 -63 31 -128 32 -145 1 -29 -1
-31 -69 -47 -38 -10 -82 -20 -97 -23 -15 -3 -39 -10 -54 -15 -15 -6 -29 -9
-31 -6 -2 2 -16 48 -29 102 -14 55 -41 158 -59 229 -18 72 -50 193 -70 270
-20 77 -38 147 -40 155 -11 46 -48 192 -80 315 -20 77 -53 208 -75 290 -21 83
-58 222 -81 310 -23 88 -45 176 -49 195 -4 19 -20 79 -35 133 -14 54 -28 106
-30 115 -2 9 -13 53 -24 97 -11 44 -34 133 -50 199 -17 65 -35 133 -40 150 -5
17 -12 45 -15 62 l-5 32 82 22 c45 12 103 28 129 36 44 12 47 11 53 -7 8 -26
63 -237 82 -315 11 -49 18 -61 31 -58 9 2 71 18 137 35 66 17 224 57 350 89
215 55 326 84 700 181 83 21 207 53 278 70 93 24 127 36 127 48 0 16 -24 113
-41 169 -6 19 -9 35 -7 38 11 11 264 70 272 64 4 -5 19 -50 32 -102z m11720
-1447 c27 -10 121 -54 208 -96 88 -42 239 -112 335 -157 236 -108 369 -175
410 -205 43 -33 81 -117 88 -193 8 -85 -17 -175 -92 -337 -56 -123 -62 -139
-47 -148 29 -16 265 -125 266 -123 9 16 72 150 121 258 35 74 96 205 137 290
41 85 80 170 87 188 8 17 17 32 21 32 19 0 240 -110 240 -120 0 -6 -28 -68
-61 -138 -34 -70 -89 -188 -124 -262 -35 -74 -86 -184 -115 -245 -29 -60 -84
-177 -122 -260 -39 -82 -117 -247 -173 -365 -56 -118 -128 -272 -160 -342 -34
-74 -64 -128 -72 -128 -21 0 -232 104 -233 114 0 10 60 143 154 339 36 76 66
141 66 146 0 10 -38 29 -285 143 -82 38 -160 76 -172 83 l-22 14 28 58 c97
199 181 394 181 416 0 41 -19 79 -56 115 -19 17 -37 32 -40 32 -4 0 -47 20
-98 44 -327 157 -697 327 -723 332 -35 7 -95 -20 -129 -58 -45 -49 -66 -107
-62 -170 6 -75 27 -99 143 -153 222 -104 277 -130 380 -179 61 -29 167 -79
238 -111 72 -33 127 -64 127 -72 0 -26 -206 -463 -218 -463 -8 0 -251 112
-467 215 -55 26 -176 83 -270 127 -189 87 -222 113 -266 204 -53 113 -36 206
83 454 41 85 117 247 169 359 101 220 137 272 229 331 98 63 192 73 296 31z
m-10981 -986 c48 -64 92 -121 99 -128 7 -7 39 -48 71 -91 82 -108 131 -173
189 -245 26 -34 47 -63 45 -65 -29 -18 -308 -232 -564 -431 -71 -56 -168 -131
-215 -166 -47 -36 -148 -114 -225 -175 -76 -60 -160 -125 -186 -144 -86 -64
-174 -132 -179 -139 -3 -3 -40 -32 -82 -64 -43 -32 -78 -62 -78 -67 0 -4 6
-15 13 -22 15 -15 103 -128 178 -230 28 -38 54 -68 58 -68 4 0 34 20 67 46
158 121 204 156 259 199 106 83 205 159 259 200 29 22 71 54 92 72 144 117
186 143 240 149 128 16 253 -52 368 -200 37 -46 81 -115 99 -153 27 -58 32
-81 35 -160 4 -85 2 -95 -27 -155 -23 -48 -42 -71 -78 -95 -27 -18 -61 -44
-78 -59 -16 -14 -55 -43 -85 -64 -31 -21 -62 -45 -70 -54 -34 -41 -45 -38 -96
26 -27 34 -71 89 -97 122 -27 34 -52 67 -57 75 -6 12 -23 3 -81 -39 -41 -30
-76 -57 -79 -60 -6 -7 -149 -118 -220 -170 -88 -65 -131 -103 -122 -109 4 -3
23 -27 40 -53 18 -25 38 -52 45 -60 18 -18 167 -216 167 -222 0 -2 -24 -21
-52 -42 -29 -21 -55 -42 -58 -46 -3 -4 -28 -23 -54 -42 -38 -27 -52 -32 -65
-24 -9 6 -65 75 -126 154 -60 80 -130 171 -155 203 -25 32 -67 87 -95 122 -27
36 -79 103 -114 150 -35 46 -66 86 -70 89 -3 3 -32 39 -63 80 -95 126 -141
185 -147 190 -4 3 -35 43 -69 90 -35 47 -80 106 -100 131 -72 89 -344 442
-442 572 l-59 79 32 27 c18 15 58 47 91 72 109 82 96 78 125 39 14 -18 53 -68
86 -111 33 -42 78 -99 99 -127 l39 -50 99 76 c54 42 134 104 177 137 42 33
144 112 226 175 81 63 171 133 200 155 29 22 151 116 272 209 120 93 244 189
276 214 35 26 55 48 50 55 -10 18 -96 130 -110 145 -18 19 -17 25 15 54 43 41
176 138 188 138 7 0 51 -52 99 -115z m10602 -1115 c98 -96 192 -195 210 -219
40 -54 57 -132 48 -216 -12 -117 -49 -165 -416 -543 l-266 -274 145 -144 c80
-79 148 -144 151 -144 4 0 63 57 131 128 68 70 275 279 459 465 l336 337 93
-93 94 -94 -45 -44 c-24 -24 -303 -309 -620 -634 -316 -324 -661 -675 -766
-780 l-191 -190 -92 92 -91 91 134 141 c74 78 134 146 134 151 0 6 -265 271
-588 590 l-589 579 -77 -81 -78 -82 -29 21 c-16 12 -65 58 -109 102 l-79 81
184 187 c102 104 231 235 287 292 l102 103 442 -431 442 -431 243 247 244 248
-77 77 c-78 78 -93 89 -93 65 0 -24 -101 -137 -140 -157 -48 -25 -74 -25 -125
-1 -55 26 -170 146 -185 195 -14 44 -7 116 16 172 50 120 196 271 327 339 70
36 74 37 164 33 l93 -4 177 -174z m-12552 -434 c77 -151 138 -276 135 -278
-21 -13 -390 -198 -397 -198 -11 0 -28 31 -165 303 -66 131 -117 241 -114 244
7 7 389 202 396 202 3 1 68 -123 145 -273z m9906 -27 c-132 -533 -174 -710
-168 -715 3 -3 30 7 59 24 29 16 89 49 133 72 44 24 94 51 112 61 19 11 36 19
38 19 7 0 215 -372 215 -386 0 -2 -128 -73 -474 -263 -82 -45 -149 -81 -151
-79 -5 7 -156 280 -190 344 l-37 70 27 135 c15 74 28 143 29 154 2 11 16 81
31 155 15 74 29 152 31 172 12 95 20 105 149 173 66 34 138 72 159 83 22 12
41 20 43 19 1 -2 -1 -19 -6 -38z m-6302 -248 c183 -110 339 -205 346 -211 11
-9 -4 -40 -77 -161 -50 -82 -88 -152 -85 -155 2 -3 15 -6 28 -6 113 -5 304
-79 444 -173 123 -83 176 -138 223 -235 31 -63 42 -189 23 -264 -9 -38 -358
-633 -417 -713 -30 -40 -115 -81 -187 -89 -72 -9 -165 20 -317 97 l-115 58
-59 148 c-32 81 -65 162 -72 178 -7 17 -24 59 -37 93 l-24 64 -30 -49 c-17
-26 -72 -118 -123 -203 -51 -85 -105 -177 -121 -203 -16 -27 -29 -51 -29 -55
0 -6 62 -46 169 -108 20 -12 110 -66 201 -121 91 -55 263 -158 382 -229 120
-71 218 -134 218 -141 0 -16 -131 -235 -139 -231 -13 6 -258 152 -331 198 -41
25 -120 73 -175 105 -178 104 -530 314 -540 322 -6 5 -24 16 -40 25 -271 158
-744 445 -745 453 0 6 29 57 65 115 36 57 66 108 68 113 3 9 33 -5 86 -38 142
-88 262 -156 270 -151 5 3 27 37 49 74 108 184 412 688 422 699 5 7 10 15 10
17 0 3 32 59 72 123 39 65 82 137 94 161 13 23 39 66 57 95 18 28 36 59 40 67
4 8 27 47 52 85 24 39 44 75 45 81 0 7 -15 19 -32 28 -18 10 -61 34 -95 55
l-63 37 73 122 c39 67 74 122 78 122 3 0 155 -90 338 -199z m1472 -770 c55
-17 194 -55 294 -81 74 -19 410 -113 413 -115 1 -1 -2 -15 -7 -31 -5 -16 -22
-74 -36 -129 -15 -55 -33 -122 -41 -150 -82 -295 -134 -485 -140 -515 -2 -14
-9 -36 -14 -50 -7 -20 -32 -109 -77 -285 -3 -11 -17 -58 -30 -105 -24 -81 -36
-127 -67 -242 -8 -29 -24 -89 -36 -133 -47 -172 -60 -220 -60 -232 0 -6 24
-18 53 -26 95 -28 162 -46 190 -53 32 -7 32 -9 7 -99 -11 -38 -25 -91 -31
-117 -13 -58 -12 -58 -161 -17 -62 17 -153 42 -203 56 -154 41 -186 50 -340
93 -82 23 -197 55 -255 70 -58 16 -147 39 -198 53 -52 14 -95 27 -98 29 -5 5
61 246 70 255 5 5 89 -16 367 -94 11 -3 19 8 28 39 30 98 41 138 66 233 44
164 79 294 170 625 48 173 91 331 95 350 5 19 20 78 35 130 42 150 55 200 55
214 0 8 -34 22 -90 37 -49 12 -95 26 -102 30 -12 8 -9 26 37 194 22 82 23 85
34 85 5 0 37 -9 72 -19z m3231 -227 c18 -104 29 -172 33 -199 3 -16 11 -66 19
-110 8 -44 22 -123 31 -175 20 -120 40 -232 59 -340 9 -47 18 -102 21 -124 2
-21 7 -46 9 -55 3 -9 21 -108 40 -221 20 -113 42 -243 51 -290 8 -47 20 -116
25 -153 6 -38 15 -88 20 -110 5 -23 12 -55 14 -72 2 -16 7 -29 12 -29 5 1 43
9 84 17 41 9 103 19 136 22 l62 7 12 -73 c6 -41 16 -93 21 -116 17 -80 18 -79
-68 -92 -43 -6 -101 -16 -130 -23 l-52 -11 46 -30 c109 -73 170 -204 160 -346
-7 -97 -33 -155 -95 -213 -53 -50 -106 -80 -191 -109 -64 -22 -198 -55 -261
-64 -25 -3 -79 -12 -120 -20 -369 -68 -463 -75 -672 -50 -288 34 -530 163
-658 349 -22 33 -40 64 -40 71 0 10 69 26 270 60 52 9 141 25 197 36 56 10
108 19 115 19 8 0 31 -27 52 -60 56 -88 121 -142 223 -185 49 -20 110 -41 137
-47 107 -23 303 19 361 78 85 85 34 321 -86 398 -25 16 -32 16 -94 1 -36 -8
-79 -15 -94 -15 -15 0 -52 -7 -84 -15 -31 -8 -83 -17 -115 -20 l-58 -6 -17 93
c-29 163 -30 178 -15 179 48 4 92 11 153 23 39 8 105 20 148 27 89 15 87 11
63 126 -8 37 -17 88 -21 113 -3 25 -12 79 -20 120 -23 122 -37 203 -41 235 -2
17 -11 68 -19 115 -17 93 -35 195 -59 335 -9 50 -23 128 -32 175 -9 47 -18
103 -20 125 -3 22 -9 56 -14 75 -5 19 -12 55 -15 80 -9 76 -26 150 -35 150 -4
0 -42 -7 -84 -16 -94 -19 -131 -16 -132 11 -1 11 -8 56 -17 100 -8 44 -18 97
-20 117 -6 43 -30 35 223 78 96 16 213 36 260 45 47 8 117 20 155 26 39 5 86
14 105 18 49 12 54 9 62 -35z m-1591 -80 l156 -6 28 -86 c16 -48 32 -94 36
-102 4 -8 23 -60 42 -115 20 -55 56 -158 82 -230 25 -71 48 -135 50 -142 3 -8
29 -12 79 -12 42 0 79 -2 83 -4 5 -3 5 -56 2 -119 -4 -62 -5 -117 -2 -122 3
-4 -29 -5 -73 -2 -138 12 -316 10 -359 -4 -136 -44 -205 -137 -205 -278 0 -37
-7 -170 -15 -297 -21 -313 -21 -427 0 -458 20 -31 56 -47 107 -47 34 0 46 6
74 36 19 19 34 43 35 52 1 9 2 33 4 52 1 19 5 101 10 183 4 81 11 150 16 153
13 8 472 -17 483 -27 7 -6 -6 -352 -19 -495 -8 -93 -85 -181 -185 -212 -47
-15 -94 -17 -335 -14 -322 3 -479 14 -550 38 -59 21 -165 121 -190 181 -26 60
-27 131 -11 425 8 150 18 360 21 467 9 255 27 321 110 394 61 54 224 97 369
97 58 0 106 3 106 6 0 3 -24 49 -54 102 -29 54 -95 174 -146 267 -51 94 -113
205 -137 247 -23 42 -43 80 -43 83 0 4 62 4 138 1 75 -3 207 -9 293 -12z"/>
<path d="M11219 17860 c14 -15 39 -53 55 -85 26 -54 28 -65 22 -130 -3 -38
-13 -95 -21 -125 -8 -30 -18 -68 -21 -85 -10 -55 -36 -140 -53 -169 -9 -17
-36 -38 -66 -52 -41 -19 -62 -23 -126 -20 -42 2 -81 6 -86 9 -5 3 -17 -26 -27
-66 -23 -98 -51 -210 -70 -280 -13 -51 -13 -65 0 -113 21 -82 53 -118 152
-172 34 -19 156 -42 222 -42 59 0 172 20 222 39 18 7 28 20 33 43 8 36 56 245
81 347 9 36 17 72 19 80 2 9 17 75 34 146 50 207 59 246 76 320 9 39 25 102
36 142 23 86 24 113 4 114 -21 2 2 -3 -225 54 -30 8 -107 27 -171 43 l-116 28
26 -26z"/>
<path d="M13370 16242 c-40 -18 -67 -50 -178 -218 -175 -263 -178 -271 -146
-339 28 -60 131 -123 199 -121 l40 1 116 175 c64 96 131 197 149 224 27 42 32
56 27 92 -7 62 -54 151 -92 174 -32 20 -85 25 -115 12z"/>
<path d="M4529 15216 c-116 -69 -149 -160 -86 -233 42 -49 275 -302 346 -376
75 -77 113 -89 178 -55 52 26 100 85 108 133 5 27 -4 41 -91 135 -53 58 -142
152 -198 210 -56 58 -124 131 -152 162 l-51 57 -54 -33z"/>
<path d="M7845 13155 c-16 -8 -42 -14 -57 -15 -66 -1 -226 -54 -353 -117 -133
-67 -217 -126 -325 -230 -141 -135 -212 -239 -320 -473 -4 -8 -15 -42 -24 -75
-10 -33 -23 -75 -28 -93 -7 -22 -17 -34 -34 -37 -13 -3 -35 -7 -48 -10 -62
-13 -126 -102 -126 -176 0 -35 -7 -50 -48 -98 -115 -132 -293 -414 -291 -459
0 -14 2 -13 8 3 14 33 112 189 180 285 68 97 98 116 87 55 -8 -40 -4 -41 56
-23 22 6 56 29 76 50 20 21 40 38 45 38 6 0 7 -25 3 -61 l-6 -61 23 16 c12 9
29 19 37 23 8 3 30 17 47 30 26 19 37 22 53 13 11 -6 20 -12 20 -13 0 -14 -41
-139 -51 -155 -19 -30 -7 -36 43 -24 59 15 87 -9 55 -47 -8 -9 -23 -40 -35
-70 l-22 -54 71 7 c46 4 68 3 64 -4 -3 -5 -13 -10 -21 -10 -9 0 -14 -11 -14
-35 l0 -36 22 21 c26 24 79 52 86 45 11 -11 -9 -32 -49 -53 -53 -27 -78 -48
-103 -86 l-19 -30 32 -28 c36 -33 38 -39 11 -63 -24 -21 -26 -58 -5 -75 8 -7
15 -17 15 -23 0 -5 11 -25 25 -43 14 -18 25 -39 25 -46 0 -7 -20 -26 -45 -42
-60 -37 -70 -57 -50 -96 8 -16 29 -40 45 -52 18 -13 30 -31 30 -45 0 -19 5
-23 30 -23 20 0 30 -5 30 -15 0 -18 -16 -19 -59 -4 -40 14 -77 5 -107 -28 -35
-38 -31 -68 14 -97 20 -13 54 -30 75 -37 29 -10 37 -18 37 -37 0 -21 3 -23 23
-17 81 25 256 35 286 16 17 -11 6 -31 -18 -31 -35 0 -145 -86 -214 -167 -69
-81 -107 -147 -107 -185 0 -11 -8 -22 -20 -25 -17 -5 -20 -14 -20 -68 0 -66
-15 -93 -45 -81 -10 4 -15 20 -15 54 0 36 -7 60 -28 93 -33 52 -83 96 -118
105 -28 7 -32 30 -5 39 12 4 17 12 14 28 -3 16 9 36 48 75 29 28 46 52 39 52
-25 0 -148 -134 -152 -166 -2 -20 -11 -31 -29 -38 -22 -7 -34 -3 -73 23 -62
43 -77 75 -79 172 -1 43 -6 79 -10 79 -5 0 -23 -10 -39 -22 -23 -16 -46 -21
-90 -22 -52 -1 -62 2 -78 24 -16 21 -21 23 -32 12 -11 -11 -9 -17 11 -33 13
-10 29 -19 37 -19 17 0 17 3 3 -116 -13 -116 0 -213 36 -282 31 -59 39 -68 98
-116 38 -31 46 -43 41 -60 -6 -20 -6 -20 9 -2 13 18 19 19 85 7 76 -14 157 -5
211 24 17 8 35 15 41 15 16 0 11 -33 -10 -60 -11 -14 -20 -33 -20 -42 0 -10
-9 -32 -19 -49 -16 -26 -17 -36 -8 -56 9 -21 6 -29 -37 -72 -46 -47 -47 -47
-26 -66 11 -10 20 -24 20 -30 0 -7 -24 -40 -52 -73 -29 -34 -73 -87 -97 -117
-31 -41 -46 -54 -54 -46 -8 8 -6 19 6 40 21 36 36 181 18 181 -6 0 -11 -13
-11 -30 0 -45 -20 -130 -45 -185 -31 -72 -126 -170 -199 -207 -172 -87 -265
-79 -661 54 -236 79 -372 134 -412 164 -54 41 -44 50 49 45 122 -5 354 31 578
90 238 63 392 65 458 5 41 -37 54 -72 47 -131 -8 -57 3 -75 28 -47 39 44 28
137 -24 196 -96 109 -294 104 -704 -18 -132 -40 -157 -45 -235 -52 -96 -8 -86
5 42 56 93 38 158 66 358 155 58 25 121 52 141 60 19 7 57 23 85 34 27 12 58
26 69 30 73 30 72 30 20 27 -27 -2 -66 -10 -85 -19 -19 -9 -73 -32 -120 -53
-47 -20 -114 -50 -150 -66 -36 -17 -144 -64 -240 -105 -96 -41 -198 -85 -227
-99 -35 -16 -69 -24 -107 -24 -53 0 -56 -1 -56 -25 0 -59 88 -119 280 -189 41
-15 84 -32 95 -36 41 -18 243 -82 340 -108 80 -21 122 -27 214 -27 l114 0 34
-33 c33 -30 34 -34 23 -66 -19 -57 8 -124 61 -152 28 -14 28 -16 23 -73 -9
-82 15 -121 89 -145 10 -3 17 -15 17 -31 0 -35 25 -82 52 -96 13 -7 38 -13 57
-15 35 -3 51 -17 51 -45 0 -9 14 -33 30 -54 34 -43 34 -63 -2 -170 -32 -98
-76 -165 -174 -263 -116 -117 -124 -129 -124 -192 0 -46 3 -52 33 -70 50 -31
108 -26 186 15 79 42 183 118 267 198 34 31 66 57 71 57 6 0 18 -9 28 -20 10
-11 23 -20 28 -20 6 0 3 8 -6 18 -18 20 -23 82 -7 82 5 0 33 -9 62 -21 44 -17
67 -20 134 -16 44 2 90 11 102 18 17 11 24 11 34 1 9 -9 7 -17 -10 -34 -20
-22 -73 -37 -202 -58 l-45 -7 57 -2 c106 -2 213 28 222 62 26 97 -16 193 -138
320 -31 31 -56 63 -56 70 0 7 9 23 20 35 17 18 32 22 88 22 155 0 348 94 437
213 34 43 40 45 57 15 9 -17 13 -76 13 -213 0 -203 2 -191 -64 -375 -17 -47
-31 -86 -31 -87 0 0 -43 -38 -96 -83 -52 -45 -102 -96 -111 -114 -14 -30 -14
-36 1 -63 18 -37 55 -48 102 -33 18 6 38 9 44 5 26 -16 6 -52 -66 -122 -75
-73 -76 -75 -77 -125 -1 -65 18 -81 88 -75 87 7 259 49 279 68 18 16 19 23 8
69 -7 28 -12 64 -12 78 0 32 37 105 101 199 25 37 53 89 63 115 24 65 54 83
141 82 49 0 91 -8 141 -27 108 -39 211 -50 290 -32 71 16 118 37 150 66 17 16
23 17 37 6 9 -6 19 -24 22 -38 5 -21 0 -33 -23 -55 -38 -37 -178 -217 -197
-254 -14 -28 -14 -29 80 -143 84 -101 96 -121 101 -164 6 -42 14 -55 63 -102
95 -91 225 -191 249 -191 39 0 35 26 -11 87 -72 93 -188 319 -207 403 -7 30
-16 70 -21 88 -8 36 9 62 42 62 67 0 276 94 373 167 72 55 83 59 90 36 3 -11
39 -51 79 -91 210 -207 447 -335 726 -393 100 -21 191 -25 191 -9 0 11 -3 11
-142 34 -219 36 -432 128 -613 265 -76 57 -235 210 -235 225 0 6 27 38 59 72
85 89 181 240 181 285 0 24 2 24 48 0 152 -78 327 -54 444 60 60 59 108 143
108 192 0 15 4 27 9 27 5 0 34 -24 64 -54 67 -65 127 -91 193 -83 49 5 81 27
69 47 -5 8 -13 7 -31 -4 -58 -39 -169 3 -236 88 l-41 51 59 3 c112 7 164 -13
230 -89 11 -13 36 -36 56 -51 50 -38 101 -148 133 -288 14 -63 32 -138 40
-166 8 -28 15 -60 15 -72 0 -11 5 -24 10 -27 6 -3 10 -12 10 -20 0 -7 16 -41
36 -74 41 -68 116 -131 158 -131 21 0 26 -5 26 -26 0 -30 -13 -56 -52 -106
-34 -44 -58 -47 -105 -15 -51 34 -83 110 -89 215 -7 106 -11 123 -25 102 -6
-9 -7 -49 -4 -95 10 -132 51 -220 123 -266 44 -28 151 -71 205 -83 38 -9 110
-77 132 -126 10 -22 15 -43 12 -47 -4 -3 -24 10 -47 30 -71 65 -90 69 -350 77
-129 4 -249 12 -265 17 -83 27 -154 83 -199 156 -29 48 -46 133 -46 237 0 93
-9 123 -24 83 -10 -25 4 -201 20 -258 8 -27 30 -75 48 -105 l34 -55 -5 -102
c-3 -64 -1 -108 6 -120 8 -14 11 9 10 92 -1 61 2 110 7 110 5 0 38 -14 74 -31
36 -18 82 -35 103 -38 43 -8 57 -29 34 -54 -8 -9 -41 -68 -72 -130 -31 -63
-65 -122 -76 -133 -18 -18 -78 -27 -92 -13 -4 4 -50 25 -104 48 -53 23 -98 46
-99 51 -2 6 3 19 12 30 12 16 18 18 34 7 30 -18 102 -42 131 -42 29 0 49 17
49 42 0 24 -16 23 -23 -2 -3 -14 -14 -20 -31 -20 -33 0 -106 36 -107 53 -1 6
-2 17 -3 24 -2 22 -41 42 -82 43 -34 0 -49 8 -97 51 -67 60 -100 64 -105 12
-6 -56 86 -203 127 -203 9 0 25 -7 35 -15 11 -8 30 -15 43 -15 13 0 69 -20
125 -45 73 -32 116 -45 148 -45 41 0 48 4 71 38 14 20 54 91 89 157 35 66 70
128 79 139 15 17 29 18 186 14 179 -6 234 -17 283 -61 33 -30 69 -97 77 -142
16 -87 139 -161 200 -121 32 21 31 40 -4 101 -27 47 -68 91 -134 140 -30 23
-41 61 -17 58 8 0 29 -4 45 -7 41 -9 86 21 120 78 22 37 24 49 15 66 -7 13
-17 19 -26 16 -8 -3 -47 3 -87 14 -39 11 -84 20 -99 20 -17 0 -39 11 -58 30
-26 26 -30 36 -29 77 1 27 1 84 -1 129 -1 46 2 90 9 102 6 11 11 28 11 38 0
10 14 49 31 88 17 39 35 80 39 91 17 41 32 175 26 219 -7 42 -5 46 16 50 106
20 202 48 222 65 9 8 49 16 91 19 49 3 75 9 75 17 0 6 -28 38 -62 71 l-62 59
45 3 c25 2 45 -1 47 -8 6 -17 59 -40 94 -40 23 0 45 10 68 30 19 16 40 29 47
30 37 1 39 -89 5 -174 -30 -73 -87 -166 -104 -172 -10 -3 -18 -14 -18 -24 0
-11 -12 -43 -28 -72 -40 -76 -52 -118 -51 -174 l1 -49 13 63 c17 78 40 127
123 262 85 139 103 181 109 268 5 65 9 75 30 85 31 14 56 58 77 137 26 96 43
145 70 199 26 50 72 111 85 111 4 0 44 -36 89 -80 138 -135 238 -289 278 -430
26 -93 24 -228 -3 -298 -19 -46 -20 -61 -12 -105 43 -226 3 -364 -149 -511
-83 -80 -133 -159 -114 -178 5 -5 16 10 26 37 12 31 42 69 98 123 136 132 188
235 188 375 0 56 4 78 16 88 20 17 178 19 194 3 8 -8 9 -45 1 -135 -12 -154
-37 -228 -113 -329 -72 -97 -80 -113 -81 -166 0 -24 -6 -49 -13 -55 -7 -6 -55
-13 -106 -16 -78 -4 -102 -2 -145 15 l-53 20 -29 -48 c-37 -60 -91 -185 -91
-211 0 -38 153 -22 323 32 31 11 64 19 73 19 9 0 29 14 45 31 26 28 29 38 29
96 0 35 -5 73 -11 84 -18 34 0 76 66 159 100 126 127 199 140 390 12 155 31
253 69 348 104 259 104 330 -3 462 -19 25 -39 46 -43 48 -22 10 -79 106 -99
167 -28 83 -33 247 -10 330 56 207 62 222 199 505 38 80 80 168 92 195 13 28
36 79 53 115 28 62 43 101 119 310 120 328 171 646 149 917 -24 287 -103 545
-225 735 -20 31 -36 60 -36 63 0 18 31 -3 77 -52 200 -218 295 -482 296 -828
1 -194 -15 -326 -63 -540 -30 -131 -43 -187 -60 -245 -104 -372 -158 -574
-184 -695 -14 -66 -21 -104 -46 -270 -6 -38 -11 -131 -11 -206 0 -202 30 -297
122 -387 l51 -49 -12 -39 c-20 -69 -24 -308 -6 -409 19 -111 63 -250 106 -335
60 -120 200 -313 215 -298 5 4 2 34 -5 67 -14 68 -9 291 10 441 24 188 -2 364
-70 470 -40 63 -67 86 -142 124 -72 37 -95 69 -130 181 -17 55 -21 94 -21 180
1 143 24 235 151 620 105 315 142 436 190 625 41 163 49 198 73 347 19 120 20
161 16 445 -5 329 -6 339 -62 528 -9 30 -19 64 -22 75 -3 11 -9 25 -13 30 -4
6 -11 21 -15 35 -9 31 -84 184 -115 236 -93 157 -234 330 -361 445 -78 71
-281 229 -293 229 -3 0 -35 18 -72 41 -58 35 -177 95 -285 143 -88 38 -334
114 -449 137 -124 25 -332 50 -480 57 -218 12 -516 -8 -645 -43 -176 -47 -211
-56 -305 -74 -324 -65 -728 -73 -955 -20 -49 11 -121 22 -160 23 -38 2 -89 10
-113 19 -23 9 -70 21 -105 27 -57 10 -128 29 -297 80 -135 40 -381 100 -414
100 -18 0 -53 7 -76 15 -56 20 -301 20 -345 0z m-75 -70 c16 -20 5 -33 -35
-41 -67 -12 -90 -82 -41 -123 20 -17 20 -35 1 -51 -8 -7 -15 -29 -15 -50 0
-21 7 -43 15 -50 8 -7 15 -20 15 -30 0 -10 -7 -23 -15 -30 -25 -21 -18 -63 15
-95 27 -26 30 -34 25 -68 -4 -22 -2 -50 5 -67 10 -25 10 -36 -5 -67 -17 -35
-17 -38 2 -77 17 -36 18 -44 5 -69 -19 -39 -7 -82 33 -113 29 -22 34 -31 32
-64 -1 -28 5 -46 21 -63 17 -18 21 -30 16 -56 -8 -38 9 -74 41 -89 20 -9 23
-17 22 -62 -2 -43 2 -55 22 -71 13 -10 34 -19 48 -19 23 0 24 -2 18 -43 -5
-34 -3 -47 15 -70 13 -16 31 -27 46 -27 19 0 24 -5 24 -26 0 -17 12 -37 35
-58 19 -18 35 -42 35 -54 0 -12 9 -31 20 -42 20 -20 26 -22 64 -24 12 -1 23
-13 30 -35 14 -39 40 -61 73 -61 18 0 25 -7 29 -29 8 -38 41 -68 78 -73 23 -2
32 -10 41 -37 16 -47 52 -74 89 -67 25 5 35 1 58 -25 27 -30 32 -31 79 -25 30
4 49 3 49 -3 0 -6 10 -20 23 -31 17 -17 30 -20 60 -16 33 6 38 4 47 -18 5 -14
21 -33 35 -42 21 -14 30 -15 51 -5 22 10 30 8 56 -15 22 -18 38 -23 52 -19 56
17 63 17 80 -9 12 -20 25 -26 51 -26 18 0 37 5 40 10 10 16 39 11 58 -10 24
-28 65 -25 99 7 24 23 31 25 53 15 38 -18 48 -15 91 22 29 25 44 32 55 25 24
-15 65 -10 84 11 15 17 26 19 70 14 50 -6 54 -5 75 24 21 28 27 31 64 26 33
-5 47 -1 70 17 22 17 43 24 80 24 46 0 52 3 71 32 18 28 25 32 63 30 52 -2 82
24 91 80 6 37 7 38 46 35 46 -4 81 24 87 68 2 21 10 26 43 30 22 3 46 9 53 13
22 14 43 67 40 100 -3 29 -1 32 22 29 58 -6 110 44 110 107 0 27 3 31 29 31
15 0 40 9 55 21 21 17 26 29 26 65 0 34 4 44 16 44 9 0 29 9 45 21 24 17 29
27 29 63 0 36 5 46 31 65 32 24 34 36 14 99 -6 17 -3 22 10 22 9 0 32 15 51
34 33 33 35 37 28 85 -5 42 -4 51 9 51 22 0 47 44 47 83 0 19 7 40 16 47 29
25 36 49 22 86 -12 33 -11 36 16 58 27 21 29 27 23 67 -5 39 -3 47 24 73 35
35 39 85 9 123 -11 14 -20 31 -20 38 0 6 9 20 20 30 12 10 20 31 20 49 1 40
44 76 69 58 61 -44 122 -72 169 -78 103 -13 184 7 259 62 17 13 39 24 47 24
36 0 140 -159 205 -315 95 -227 102 -544 19 -882 -11 -45 -17 -90 -14 -100 3
-10 -8 -44 -25 -78 -17 -33 -39 -85 -49 -115 -10 -30 -27 -77 -38 -105 -11
-27 -33 -87 -50 -132 -17 -46 -40 -101 -51 -124 -11 -22 -17 -47 -15 -54 3 -7
-3 -26 -14 -42 -11 -15 -35 -68 -52 -118 -18 -49 -42 -112 -55 -140 -39 -84
-113 -364 -140 -530 -23 -139 -24 -393 -1 -508 20 -103 69 -252 91 -277 8 -9
15 -25 15 -36 0 -24 56 -112 96 -151 29 -30 76 -89 82 -104 7 -19 -20 -7 -85
35 -38 24 -78 55 -91 69 -14 15 -31 23 -41 20 -11 -3 -33 8 -56 29 -21 18 -59
44 -86 58 -69 36 -198 139 -309 250 -165 164 -226 235 -335 395 -38 55 -78
108 -89 117 -52 43 -102 0 -78 -66 17 -47 17 -49 -36 -127 -185 -271 -427
-448 -729 -535 -70 -20 -137 -40 -148 -45 -38 -17 67 -3 155 21 220 59 414
174 583 347 74 75 187 222 187 243 0 27 38 5 65 -37 17 -25 37 -56 45 -69 13
-21 10 -27 -59 -118 -68 -89 -160 -184 -256 -264 -48 -40 -203 -142 -216 -142
-5 0 -9 -5 -9 -11 0 -13 84 33 168 91 127 88 299 265 367 377 24 39 30 36 85
-36 l34 -44 -31 -26 c-517 -438 -680 -549 -914 -617 -86 -26 -108 -28 -264
-28 -159 0 -178 2 -290 31 -211 55 -330 116 -493 249 -64 54 -92 82 -88 93 3
9 15 43 27 76 31 85 51 176 95 418 20 110 9 103 134 86 137 -19 228 10 311 97
26 27 63 64 83 83 75 68 116 208 116 392 0 103 -10 149 -34 149 -24 0 -102
-95 -141 -172 -39 -78 -65 -189 -65 -280 0 -45 -5 -62 -22 -83 -34 -39 -144
-75 -228 -75 -80 0 -100 6 -100 30 0 42 76 194 135 269 44 56 55 81 35 81 -17
0 -107 -120 -139 -186 -17 -35 -41 -93 -52 -129 -12 -36 -27 -65 -33 -66 -34
-3 -98 4 -146 17 -30 8 -66 14 -80 14 -43 0 -2 -18 60 -26 30 -3 60 -10 65
-14 17 -12 270 -32 311 -24 22 4 61 15 87 25 53 21 75 23 96 10 21 -13 0 -37
-54 -61 -70 -32 -130 -34 -286 -11 -326 49 -334 50 -395 22 -66 -30 -114 -106
-114 -181 0 -49 66 -196 175 -390 27 -47 57 -103 68 -125 12 -22 32 -54 46
-72 62 -75 220 -174 359 -224 31 -11 66 -24 77 -29 11 -5 30 -12 43 -15 24 -7
29 -34 11 -67 -39 -72 -51 -281 -24 -397 31 -131 118 -261 222 -332 l43 -30
-18 -27 c-10 -15 -31 -52 -47 -82 -105 -206 -369 -409 -609 -469 -102 -26
-109 -32 -100 -95 9 -67 40 -169 71 -230 45 -88 -18 -87 -95 2 -26 30 -75 87
-109 125 -35 39 -63 77 -63 85 0 18 90 146 169 240 57 67 61 76 55 107 -3 20
-10 38 -15 41 -5 3 -9 14 -9 25 0 11 -6 30 -14 42 -43 66 -91 358 -84 512 4
83 3 87 -8 50 -29 -93 -12 -326 36 -495 29 -104 30 -100 -15 -131 -100 -69
-258 -77 -423 -20 -116 39 -163 41 -233 8 -80 -37 -96 -51 -80 -70 10 -13 9
-23 -7 -60 -16 -37 -27 -46 -68 -61 -27 -10 -73 -30 -103 -43 -78 -35 -131
-52 -136 -44 -7 12 53 54 195 136 41 24 100 68 96 72 -4 4 -16 -3 -110 -61
l-47 -28 -52 48 c-28 26 -54 49 -55 50 -18 13 150 154 233 196 75 38 151 45
260 25 168 -32 239 18 292 206 15 55 101 397 108 433 4 15 15 23 37 27 18 3
46 9 62 13 35 8 48 -9 35 -45 -9 -25 -8 -25 6 -7 8 11 15 29 15 41 0 11 18 44
40 74 35 46 40 60 40 106 0 49 3 55 43 91 24 22 56 49 73 61 32 24 31 24 -27
63 -12 8 -40 32 -62 53 -22 20 -44 37 -49 37 -19 0 15 -42 62 -77 52 -39 63
-67 31 -78 -11 -3 -36 -24 -55 -45 -36 -40 -58 -48 -85 -31 -12 8 -12 18 4 66
13 43 16 73 11 122 -8 74 -20 101 -70 161 -80 97 -194 293 -229 396 -26 76
-22 176 9 241 36 78 149 165 212 165 11 0 24 5 27 10 9 15 -70 1 -120 -20 -76
-34 -127 -101 -159 -212 -26 -89 -1 -203 75 -346 21 -41 39 -75 39 -77 0 -26
-171 158 -274 295 -76 101 -166 251 -166 279 0 38 47 91 107 118 54 25 56 25
251 18 172 -6 203 -5 247 10 100 34 145 92 145 185 0 59 -12 64 -52 21 -76
-80 -195 -94 -397 -47 -198 46 -319 30 -404 -52 l-37 -36 -53 52 c-29 28 -61
67 -71 86 -18 34 -18 35 3 62 30 39 44 98 43 189 0 92 -36 219 -76 273 -56 76
-57 113 -6 177 51 64 34 101 -41 89 -96 -15 -183 -87 -233 -193 l-29 -59 25
-33 c59 -79 64 -211 12 -296 -40 -64 -52 -70 -116 -53 -29 7 -74 13 -101 13
-58 -1 -68 12 -32 41 24 19 27 28 23 61 -4 35 0 43 34 76 42 40 50 78 22 117
-18 25 -12 52 10 52 23 0 56 50 56 85 0 19 -8 39 -20 50 -24 22 -26 48 -4 66
20 17 44 63 44 87 0 11 -11 36 -25 56 l-25 37 35 33 c30 29 35 39 35 81 0 42
-4 52 -37 82 -36 34 -36 35 -20 63 10 15 17 45 17 65 0 30 -7 44 -35 70 -32
31 -34 36 -28 83 7 63 -15 103 -69 128 -32 15 -38 21 -33 38 24 75 13 116 -36
137 -21 8 -32 22 -39 49 -13 48 -39 70 -90 77 -32 5 -44 12 -56 34 -18 35 -49
53 -80 45 -20 -5 -24 -3 -24 18 0 27 34 115 81 212 113 233 332 450 572 568
89 44 255 104 288 105 9 1 22 -6 29 -14z m-8 -99 c6 -32 -5 -49 -28 -44 -23 4
-30 34 -14 53 19 22 37 18 42 -9z m3292 8 c13 -5 16 -20 15 -73 -1 -36 -4 -79
-8 -96 -7 -30 -7 -29 -36 30 -21 42 -44 70 -78 95 l-47 35 52 6 c29 3 61 6 70
7 9 1 23 -1 32 -4z m328 -34 c11 -19 30 -45 44 -57 28 -26 30 -33 9 -33 -25 0
-72 28 -116 67 -52 47 -52 65 3 61 36 -3 44 -8 60 -38z m-455 -44 c35 -22 73
-90 73 -129 0 -67 -46 -142 -104 -168 -43 -19 -140 -25 -165 -10 -24 16 -1 33
35 26 44 -8 106 9 143 40 81 69 23 213 -93 232 -43 7 -55 21 -32 38 21 16 97
1 143 -29z m760 27 c5 -15 -83 -73 -109 -73 -25 0 -23 4 25 50 41 39 76 49 84
23z m-2822 -18 c17 -2 62 -9 100 -15 86 -13 175 -47 175 -67 0 -10 -6 -13 -17
-8 -86 34 -288 40 -262 9 9 -11 4 -14 -29 -14 -23 0 -45 6 -52 15 -7 8 -22 15
-33 15 -20 0 -20 0 -1 21 19 21 18 21 -6 41 l-25 20 60 -6 c33 -3 74 -8 90
-11z m3137 -88 c82 -34 111 -118 62 -176 -40 -48 -59 -41 -98 37 -19 37 -46
84 -60 105 -38 56 -35 66 18 56 25 -4 60 -14 78 -22z m-4234 -25 c2 -33 0 -42
-13 -42 -22 0 -38 46 -24 71 16 31 34 17 37 -29z m3065 39 c54 -21 80 -75 61
-126 -13 -33 -93 -56 -138 -39 -19 7 -22 78 -4 135 12 42 31 49 81 30z m-1786
-32 c27 -6 57 -15 68 -19 19 -7 19 -7 -3 -19 -13 -7 -54 -15 -93 -18 -60 -5
-69 -4 -64 10 5 11 -3 17 -34 22 -25 4 -41 12 -41 21 0 18 97 19 167 3z m3113
-8 c0 -6 23 -41 52 -78 109 -144 167 -314 175 -518 8 -203 -16 -350 -93 -568
-29 -83 -107 -267 -122 -287 -6 -8 -22 24 -22 45 0 11 -12 38 -26 59 -21 31
-24 40 -13 47 8 5 17 9 21 9 3 0 21 12 38 26 75 64 96 179 46 255 -14 21 -26
42 -26 46 0 5 18 18 39 30 50 29 91 107 91 172 0 54 -27 116 -64 150 -32 30
-33 44 -2 84 81 107 45 252 -77 317 -50 27 -54 35 -35 86 11 31 6 61 -18 122
-4 7 2 12 15 12 12 0 21 -4 21 -9z m-2185 -11 c3 -5 14 -10 24 -10 10 0 63
-21 117 -47 54 -25 126 -54 159 -64 l60 -17 -39 -17 c-29 -12 -69 -17 -151
-17 -123 -1 -187 15 -96 24 65 6 81 20 44 37 -69 33 -98 51 -95 61 3 14 -15
32 -48 47 -24 11 -24 12 -3 12 12 1 25 -3 28 -9z m2289 -27 c21 -10 39 -27 45
-45 5 -15 24 -48 41 -73 39 -57 83 -159 111 -261 18 -64 22 -106 22 -224 1
-140 -7 -206 -39 -335 -16 -64 -60 -206 -74 -240 -4 -11 -25 -60 -45 -110 -65
-158 -179 -372 -292 -548 -61 -96 -48 -107 19 -17 91 121 225 358 282 500 15
36 31 74 36 85 4 11 19 52 33 90 81 234 100 338 100 540 0 230 -33 375 -119
519 -19 32 -32 61 -29 64 7 8 86 -36 107 -59 9 -11 24 -19 35 -19 63 -2 386
-277 523 -446 206 -256 313 -496 377 -849 22 -122 25 -454 5 -585 -37 -241
-45 -284 -92 -470 -55 -220 -81 -306 -225 -734 -47 -140 -94 -296 -105 -348
-35 -167 -23 -313 35 -429 33 -64 28 -80 -11 -40 -64 65 -104 200 -104 348 0
80 24 305 39 377 5 23 15 68 21 101 13 62 20 88 63 235 162 558 174 603 217
845 57 320 38 662 -50 875 -84 206 -197 366 -323 457 -29 20 -71 54 -94 75
-26 23 -48 35 -58 32 -24 -9 -19 -22 33 -83 164 -192 267 -449 307 -766 19
-151 19 -218 0 -391 -39 -368 -144 -689 -393 -1204 -84 -174 -108 -232 -157
-370 -80 -224 -88 -284 -56 -391 11 -35 23 -81 26 -101 9 -49 113 -207 159
-244 21 -16 49 -51 63 -78 22 -44 25 -59 21 -125 -4 -63 -15 -99 -61 -211 -30
-74 -58 -156 -62 -183 -4 -26 -10 -49 -14 -51 -3 -2 -30 0 -59 5 -32 5 -75 4
-108 -2 -30 -6 -58 -8 -63 -5 -5 3 -2 36 6 73 34 157 41 223 32 311 -22 211
-137 403 -346 577 -37 30 -41 49 -16 63 14 9 12 15 -20 54 -75 91 -162 306
-220 543 -47 191 -59 278 -58 427 0 205 34 327 153 563 76 150 127 236 306
510 162 248 226 356 291 488 56 117 110 274 137 397 25 116 25 367 0 460 -34
126 -71 216 -101 247 -7 7 -15 18 -18 25 -2 7 -8 10 -12 6 -4 -4 2 -22 14 -41
106 -172 132 -469 65 -747 -50 -204 -206 -518 -414 -830 -170 -254 -255 -405
-342 -609 -42 -99 -57 -128 -58 -106 -1 95 118 395 277 700 230 440 322 650
362 820 70 302 48 574 -64 795 -18 36 -49 87 -69 115 -50 69 -49 76 8 48z
m-3364 -3 c11 -7 7 -10 -17 -10 -17 0 -35 5 -38 10 -8 13 35 13 55 0z m2140
-130 c-19 -93 -72 -314 -82 -339 -13 -35 -22 -17 -24 48 -3 63 -24 115 -69
165 -28 33 -27 36 30 55 22 7 51 23 64 35 37 33 81 107 83 140 1 25 2 23 6 -9
2 -22 -1 -65 -8 -95z m-1890 70 c0 -5 -4 -10 -9 -10 -6 0 -13 5 -16 10 -3 6 1
10 9 10 9 0 16 -4 16 -10z m-1372 -58 c4 -48 -2 -51 -35 -20 -26 24 -29 38
-11 56 24 24 43 9 46 -36z m1422 13 c0 -8 -5 -17 -10 -20 -7 -5 -8 -11 -1 -18
13 -17 -15 -55 -30 -40 -8 8 -29 1 -77 -23 -37 -18 -75 -34 -84 -34 -11 0 -18
-8 -18 -20 0 -11 2 -20 6 -20 16 0 117 55 142 78 16 15 32 16 32 2 0 -5 -4
-10 -9 -10 -5 0 -16 -6 -23 -13 -32 -31 -207 -137 -226 -137 -24 0 -25 30 -1
49 13 11 21 22 17 26 -4 4 -14 0 -23 -9 -35 -35 -54 -10 -23 30 31 41 75 80
133 118 87 57 195 80 195 41z m-330 -79 c0 -3 -4 -8 -10 -11 -5 -3 -10 -1 -10
4 0 6 5 11 10 11 6 0 10 -2 10 -4z m449 -36 c4 0 12 5 18 11 15 15 25 -47 17
-103 -7 -50 -31 -108 -44 -108 -6 0 -10 -14 -10 -31 0 -17 -8 -43 -18 -57 -10
-15 -22 -34 -25 -42 -4 -8 -16 -28 -27 -45 -11 -16 -23 -37 -27 -45 -3 -8 -12
-19 -20 -23 -7 -4 -13 -17 -13 -27 0 -11 -4 -20 -9 -20 -18 0 -21 37 -6 66 19
37 19 54 0 54 -21 0 -19 11 8 40 36 42 69 91 64 97 -9 8 -27 -7 -27 -23 0 -15
-18 -18 -36 -6 -20 13 -27 52 -12 70 8 9 15 26 16 37 1 24 80 148 113 176 l24
21 3 -21 c2 -12 7 -21 11 -21z m222 -12 c15 -56 20 -228 7 -228 -6 0 -8 -25
-4 -67 4 -38 2 -90 -2 -118 l-9 -50 -7 38 c-5 21 -14 36 -20 35 -22 -5 -73 65
-81 109 -4 24 -11 45 -16 49 -5 3 -5 13 1 24 5 10 10 37 10 59 0 22 5 43 10
46 6 3 10 18 11 33 0 15 3 21 6 15 2 -7 11 -13 19 -13 10 0 12 8 8 30 -5 23
-3 30 10 30 9 0 16 8 16 18 0 20 8 32 21 32 5 0 13 -19 20 -42z m-1743 -26 c2
-18 -1 -32 -7 -32 -15 0 -33 39 -27 57 10 24 31 9 34 -25z m222 24 c16 -20 9
-60 -12 -64 -15 -3 -18 4 -18 37 0 43 9 51 30 27z m4113 0 c18 -7 45 -28 60
-45 50 -60 30 -157 -44 -205 -47 -32 -57 -32 -63 -3 -2 12 -12 63 -22 112 -31
158 -31 155 5 155 18 0 46 -6 64 -14z m-1351 -19 c95 -58 134 -175 89 -272
-49 -106 -164 -150 -284 -109 -50 17 -61 40 -31 65 13 10 20 10 44 -4 43 -26
138 -23 181 6 46 30 70 81 65 135 -7 73 -71 142 -132 142 -24 0 -30 14 -18 44
9 22 43 20 86 -7z m-959 -162 c18 -22 61 -68 97 -102 36 -35 60 -63 54 -63
-15 0 -122 70 -162 106 -25 23 -29 33 -20 42 9 9 6 18 -13 39 -26 30 -49 68
-49 80 1 8 39 -34 93 -102z m-973 65 c0 -5 -4 -10 -10 -10 -5 0 -10 5 -10 10
0 6 5 10 10 10 6 0 10 -4 10 -10z m1908 -13 c20 -16 42 -63 42 -87 0 -62 -77
-107 -147 -88 -56 14 -67 28 -52 64 52 128 61 138 109 129 19 -4 41 -12 48
-18z m-2934 -30 c13 -35 -5 -57 -32 -41 -19 12 -27 38 -18 60 9 24 39 12 50
-19z m33 -141 c12 -39 2 -56 -32 -56 -27 0 -45 18 -45 45 0 27 18 45 45 45 16
0 24 -9 32 -34z m273 2 c23 -38 26 -68 7 -68 -21 0 -43 31 -50 68 -5 24 -3 32
8 32 9 0 24 -15 35 -32z m1282 -65 c4 -74 2 -85 -12 -63 -12 19 -13 130 -1
130 5 0 11 -30 13 -67z m1454 -94 c-31 -62 -61 -123 -68 -134 -7 -11 -37 -57
-67 -103 -57 -89 -135 -185 -216 -267 -76 -76 -143 -135 -153 -135 -5 0 -15
-7 -22 -15 -7 -9 -56 -44 -109 -79 -147 -97 -360 -193 -481 -216 -25 -4 -90
-18 -145 -30 -85 -18 -122 -20 -250 -16 -82 3 -161 8 -175 11 -14 4 -47 11
-75 16 -27 5 -77 16 -110 24 l-60 14 60 -4 c33 -2 70 -7 83 -11 24 -7 31 10 7
20 -25 9 -17 29 9 24 27 -5 40 19 25 43 -7 11 -9 10 -9 -3 0 -11 -5 -15 -15
-12 -25 10 -17 24 20 40 19 8 35 18 35 22 0 5 6 16 13 26 11 16 16 12 52 -41
39 -58 82 -102 99 -103 5 0 17 -6 25 -14 25 -21 135 -39 190 -32 140 18 271
138 287 263 12 86 9 84 56 40 55 -53 99 -70 183 -71 59 0 80 4 128 28 63 32
91 60 133 131 23 40 29 63 31 120 2 61 5 70 20 67 66 -13 107 -12 154 3 112
38 185 160 160 270 -7 29 -18 61 -26 71 -25 33 -18 44 28 44 74 0 168 55 213
124 41 64 23 -3 -30 -115z m1304 86 c37 -19 70 -74 70 -118 0 -43 -37 -91 -87
-112 -65 -27 -65 -28 -62 108 2 67 4 125 6 130 7 12 42 8 73 -8z m-5330 -35
c0 -5 -4 -10 -10 -10 -5 0 -10 5 -10 10 0 6 5 10 10 10 6 0 10 -4 10 -10z
m1060 -36 c6 -14 10 -29 10 -34 0 -17 -30 -18 -51 -1 -18 15 -20 21 -10 39 16
30 39 28 51 -4z m2668 -24 c110 -106 83 -279 -50 -335 -78 -32 -153 -12 -212
57 -55 64 -44 78 17 21 42 -40 62 -51 99 -57 89 -13 148 44 148 142 0 58 -17
97 -64 149 -31 34 -30 63 2 63 11 0 38 -18 60 -40z m-3756 -9 c118 -51 222
-190 280 -376 49 -159 80 -398 68 -535 -7 -73 -7 -73 -9 -20 -10 237 -50 420
-126 573 -82 165 -235 297 -365 314 -31 4 -40 10 -38 22 4 17 50 20 98 7 23
-7 23 -6 8 7 -10 8 -18 17 -18 21 0 13 60 5 102 -13z m188 -43 c0 -23 -12 -23
-34 1 -13 15 -14 20 -4 24 8 3 5 6 -7 6 -16 1 -17 3 -5 11 18 11 50 -15 50
-42z m3485 -27 c67 -100 21 -216 -71 -181 -46 18 -95 70 -88 94 8 26 104 126
121 126 7 0 24 -17 38 -39z m-3779 -18 c68 -20 179 -105 227 -174 47 -68 100
-179 122 -255 9 -33 20 -72 25 -89 16 -57 20 -110 12 -160 l-9 -50 -7 40 c-48
257 -78 339 -165 455 -23 30 -41 60 -41 66 0 20 -112 115 -160 136 -24 10 -62
20 -82 21 -29 1 -38 5 -38 19 0 20 26 18 116 -9z m1244 -2 c15 -29 2 -53 -28
-49 -33 4 -50 31 -33 52 18 22 48 20 61 -3z m-1220 -63 c49 -32 60 -50 17 -31
-55 26 -80 33 -116 33 -36 0 -68 19 -55 33 17 16 107 -4 154 -35z m360 22 c8
-14 8 -26 0 -40 -14 -27 -27 -25 -34 5 -4 14 -11 25 -16 25 -6 0 -10 7 -10 15
0 23 47 19 60 -5z m1308 -49 c34 -32 62 -64 62 -71 0 -9 -15 -11 -52 -8 -65 7
-98 39 -98 99 0 24 5 39 13 39 6 0 40 -27 75 -59z m-394 -55 c9 -35 -3 -58
-28 -54 -28 4 -35 47 -10 65 25 18 31 16 38 -11z m-1254 -10 c0 -8 -7 -16 -15
-20 -15 -5 -21 14 -8 27 11 12 23 8 23 -7z m5384 -20 c51 -42 47 -148 -7 -187
-32 -23 -71 -30 -90 -16 -15 11 -15 18 3 82 11 39 20 84 20 101 0 51 26 59 74
20z m-1875 -44 c49 -101 34 -216 -37 -284 -55 -53 -92 -68 -167 -68 -95 0
-157 35 -196 112 -10 20 -26 41 -35 46 -20 11 -10 32 15 32 9 0 22 5 28 11 8
8 18 1 36 -28 47 -74 145 -130 207 -118 28 5 73 31 91 51 57 65 64 144 20 227
-20 37 -26 58 -19 65 17 17 33 4 57 -46z m-3078 -13 c14 -26 4 -69 -16 -69 -9
0 -20 12 -26 28 -6 15 -16 39 -24 54 -7 15 -11 29 -8 32 9 9 62 -23 74 -45z
m-331 6 c0 -8 -7 -15 -15 -15 -16 0 -20 12 -8 23 11 12 23 8 23 -8z m3323 -17
c26 -51 32 -119 13 -156 -27 -52 -91 -75 -149 -53 -29 11 -97 79 -97 96 0 19
52 61 130 104 41 22 77 41 80 41 3 0 13 -15 23 -32z m-2078 -38 c7 -23 -10
-60 -28 -60 -16 0 -37 20 -37 36 0 17 28 44 45 44 8 0 16 -9 20 -20z m-1195
-20 c0 -18 -36 -38 -47 -26 -9 9 27 57 37 51 6 -4 10 -15 10 -25z m1959 -66
c53 -19 106 -46 119 -58 l22 -22 -35 -41 c-67 -78 -154 -78 -221 1 -30 35 -34
46 -34 98 0 56 1 58 26 58 14 0 70 -16 123 -36z m-1935 2 c-6 -17 -52 -42 -60
-33 -8 8 36 46 53 47 7 0 10 -6 7 -14z m289 -17 c37 -17 51 -54 31 -84 -31
-48 -60 -36 -71 29 -5 33 0 66 11 66 3 0 16 -5 29 -11z m945 -21 c-4 -27 -28
-36 -28 -10 0 20 8 32 22 32 5 0 8 -10 6 -22z m-1221 -36 c-10 -10 -17 -22
-17 -27 0 -5 -7 -16 -16 -26 -9 -10 -19 -32 -23 -49 -8 -41 -25 -43 -29 -2 -2
17 1 32 7 32 5 0 12 8 15 18 8 22 66 85 74 78 3 -3 -2 -14 -11 -24z m2813 -2
c6 -12 11 -51 12 -88 1 -116 -45 -190 -152 -248 -53 -28 -180 -25 -239 5 -72
38 -128 113 -133 181 -1 17 -6 34 -10 36 -4 3 -8 23 -8 44 0 36 2 39 28 36 25
-2 27 -5 24 -38 -6 -79 43 -165 122 -216 47 -29 140 -34 197 -10 54 24 105 82
125 144 16 51 16 69 -2 147 -5 21 -3 27 9 27 9 0 21 -9 27 -20z m-101 -13 c17
-21 21 -83 8 -120 -35 -97 -118 -131 -223 -91 -46 18 -69 57 -80 137 -6 42 -4
47 17 57 21 9 149 25 235 29 17 0 37 -5 43 -12z m-2653 -21 c8 -22 -14 -56
-36 -56 -24 0 -25 4 -3 41 19 32 31 36 39 15z m2137 7 c3 -5 0 -19 -6 -33 -8
-20 -11 -22 -14 -7 -3 9 -9 17 -14 17 -6 0 -7 -5 -4 -11 4 -6 -2 -19 -14 -30
-12 -11 -21 -24 -21 -29 0 -16 18 -11 29 8 10 15 10 15 11 -4 0 -20 -42 -65
-90 -97 -28 -19 -40 -21 -40 -7 0 6 5 10 12 10 6 0 24 14 40 32 29 33 35 44
18 33 -16 -10 -12 21 5 35 8 7 15 19 15 27 0 38 58 82 73 56z m-875 -40 c3
-22 -28 -40 -48 -28 -12 7 -13 38 -3 49 15 14 48 1 51 -21z m3783 -32 c46 -46
37 -106 -21 -136 -36 -19 -51 -19 -75 -1 -17 13 -17 16 10 90 17 47 33 76 42
76 8 0 28 -13 44 -29z m-3076 -1 c-3 -5 -12 -10 -18 -10 -7 0 -6 4 3 10 19 12
23 12 15 0z m-40 -30 c-3 -5 -12 -10 -18 -10 -7 0 -6 4 3 10 19 12 23 12 15 0z
m-1646 -41 c20 -35 7 -77 -26 -90 -43 -16 -53 -6 -53 59 0 32 3 61 6 64 12 12
60 -10 73 -33z m1531 31 c0 -5 -4 -10 -9 -10 -6 0 -13 5 -16 10 -3 6 1 10 9
10 9 0 16 -4 16 -10z m-450 -15 c17 -20 5 -45 -20 -45 -23 0 -35 22 -26 45 7
19 30 19 46 0z m810 -24 c0 -10 -21 -41 -47 -68 -27 -28 -53 -58 -59 -69 -11
-20 -64 -33 -64 -16 0 6 19 25 43 43 45 36 79 71 104 107 19 27 23 28 23 3z
m-490 -11 c0 -5 -4 -10 -10 -10 -5 0 -10 5 -10 10 0 6 5 10 10 10 6 0 10 -4
10 -10z m268 -49 c3 -8 -1 -12 -9 -9 -8 3 -33 -1 -56 -8 -51 -15 -56 -6 -10
18 37 20 68 19 75 -1z m-484 -14 c8 -13 6 -21 -7 -34 -17 -17 -19 -17 -32 1
-10 14 -11 24 -4 38 12 22 27 20 43 -5z m326 13 c0 -5 -7 -10 -15 -10 -8 0
-15 5 -15 10 0 6 7 10 15 10 8 0 15 -4 15 -10z m-1750 -7 c-1 -24 -45 -53 -79
-53 -29 0 -26 14 7 39 26 20 72 29 72 14z m49 -137 c-5 -6 -8 12 -8 45 l2 54
7 -45 c4 -25 4 -49 -1 -54z m5021 89 c0 -3 -21 -42 -47 -87 l-48 -82 -6 49
c-3 28 -8 56 -10 63 -2 8 11 19 35 27 21 7 43 18 49 24 12 12 27 15 27 6z
m-3522 -68 c4 -33 -22 -47 -45 -25 -12 13 -13 20 -3 37 15 30 44 23 48 -12z
m3336 -7 c21 -52 20 -68 -4 -107 -14 -23 -29 -34 -55 -39 -20 -3 -39 -4 -42 0
-3 3 6 34 20 68 15 35 31 75 36 91 14 37 26 34 45 -13z m-3016 13 c-10 -2 -28
-2 -40 0 -13 2 -5 4 17 4 22 1 32 -1 23 -4z m-1654 -36 c12 -33 -8 -80 -37
-85 -15 -3 -17 5 -17 58 0 58 1 61 22 58 14 -2 26 -14 32 -31z m-214 -7 c0 -5
-4 -10 -10 -10 -5 0 -10 5 -10 10 0 6 5 10 10 10 6 0 10 -4 10 -10z m1690 -23
c0 -7 -10 -18 -21 -25 -25 -16 -45 -3 -36 22 7 19 57 22 57 3z m-1630 -33 c0
-8 -4 -14 -10 -14 -5 0 -10 9 -10 21 0 11 5 17 10 14 6 -3 10 -13 10 -21z
m558 -8 c2 -10 -8 -31 -24 -47 -22 -23 -27 -38 -28 -78 -2 -64 -18 -81 -89
-88 -117 -12 -134 16 -67 110 67 93 198 158 208 103z m-618 -5 c7 -15 6 -23
-6 -35 -14 -14 -18 -14 -45 -1 -46 25 -36 50 23 54 10 0 22 -8 28 -18z m1808
-9 c3 -23 -5 -27 -32 -16 -19 7 -21 30 -3 37 20 9 32 2 35 -21z m-1691 -34
c-3 -7 -5 -2 -5 12 0 14 2 19 5 13 2 -7 2 -19 0 -25z m2638 1 c0 -7 -8 -15
-17 -17 -18 -3 -25 18 -11 32 10 10 28 1 28 -15z m-811 2 c10 -15 -13 -63 -27
-58 -17 5 -21 35 -7 52 14 17 26 19 34 6z m-1897 -23 c-3 -8 -6 -5 -6 6 -1 11
2 17 5 13 3 -3 4 -12 1 -19z m2018 1 c13 -19 -4 -59 -25 -59 -22 0 -26 20 -10
51 12 21 25 25 35 8z m561 -24 c-5 -14 -9 -15 -21 -5 -12 10 -13 16 -4 27 15
18 34 1 25 -22z m2300 -12 c-8 -15 -26 -49 -38 -75 -13 -26 -25 -48 -28 -48
-3 0 -13 18 -22 41 l-17 40 32 14 c18 7 43 25 56 39 30 32 38 27 17 -11z
m-2718 0 c4 -27 -14 -63 -32 -63 -20 0 -24 20 -14 58 10 38 41 41 46 5z
m-2264 8 c3 -5 0 -11 -8 -14 -15 -6 -26 1 -26 15 0 11 27 10 34 -1z m96 -78
c-10 -16 -11 -15 -6 7 3 14 7 39 8 55 1 26 2 25 5 -7 2 -21 -1 -46 -7 -55z
m2302 36 c-2 -60 -42 -65 -42 -5 0 36 18 62 34 46 5 -5 9 -23 8 -41z m146 39
c7 -7 8 -17 1 -30 -18 -33 -69 -16 -69 24 0 21 48 26 68 6z m-2300 -20 c7 -7
12 -25 12 -40 0 -21 -6 -31 -26 -38 -36 -14 -36 -14 -29 28 11 66 18 75 43 50z
m-212 -52 c-10 -6 -45 -30 -78 -54 -33 -24 -63 -41 -66 -37 -10 10 90 94 123
103 36 11 47 4 21 -12z m4779 -45 c20 -40 10 -84 -25 -104 -15 -10 -33 -17
-39 -17 -14 0 -15 37 -1 45 6 3 10 12 10 19 0 16 28 86 35 86 2 0 11 -13 20
-29z m-4655 -10 c0 -6 -4 -13 -10 -16 -5 -3 -10 1 -10 9 0 9 5 16 10 16 6 0
10 -4 10 -9z m-120 -26 c0 -16 -38 -45 -57 -45 -22 0 -14 23 14 46 29 23 43
23 43 -1z m166 -69 c7 -19 -14 -58 -29 -53 -11 4 -12 25 -2 55 6 16 24 15 31
-2z m-79 -43 c-3 -10 -5 -2 -5 17 0 19 2 27 5 18 2 -10 2 -26 0 -35z m-112 17
c4 -6 -7 -10 -27 -9 -27 0 -30 2 -13 9 27 12 33 12 40 0z m86 -103 c-6 -6 -11
-20 -11 -31 0 -34 -32 -106 -46 -106 -18 0 -18 18 1 54 8 15 15 37 15 47 0 11
7 22 15 25 8 4 15 18 15 33 0 38 14 49 18 16 2 -15 -1 -32 -7 -38z m4729 17
c0 -9 -5 -14 -12 -12 -18 6 -21 28 -4 28 9 0 16 -7 16 -16z m-114 -31 c28 -38
2 -117 -46 -143 -32 -17 -35 -5 -14 42 10 23 18 59 18 80 -2 42 18 52 42 21z
m-4826 -11 c0 -10 11 -29 25 -42 31 -29 22 -44 -15 -25 -33 17 -54 50 -46 71
8 20 36 17 36 -4z m95 -2 c3 -5 3 -15 0 -20 -7 -12 -45 5 -45 20 0 13 37 13
45 0z m155 -9 c0 -6 -4 -13 -10 -16 -5 -3 -10 1 -10 9 0 9 5 16 10 16 6 0 10
-4 10 -9z m425 -169 c39 -19 148 -130 140 -142 -16 -26 -57 -8 -107 45 -28 30
-71 66 -96 81 -72 42 -18 56 63 16z m-127 -21 c70 -35 148 -103 138 -119 -12
-20 -98 -3 -120 24 -24 33 -70 77 -92 90 -17 10 -13 34 7 34 5 0 35 -13 67
-29z m-98 -31 c59 -38 97 -78 84 -89 -17 -16 -63 -22 -73 -9 -5 7 -29 35 -52
61 -35 39 -40 50 -28 58 19 12 16 13 69 -21z m4400 11 c0 -6 -4 -13 -10 -16
-5 -3 -10 1 -10 9 0 9 5 16 10 16 6 0 10 -4 10 -9z m-2316 -17 c14 -36 5 -120
-18 -170 -38 -81 -126 -157 -126 -109 0 9 7 18 15 22 24 9 75 89 75 117 0 14
5 26 10 26 6 0 10 19 10 43 0 72 19 111 34 71z m-2162 -51 c43 -42 47 -59 17
-68 -17 -6 -31 3 -67 38 -25 25 -41 50 -38 56 14 21 51 11 88 -26z m4374 12
c4 -18 1 -32 -11 -45 -25 -28 -34 -16 -22 30 13 46 24 51 33 15z m-2953 -105
c-17 -24 -48 -50 -79 -65 -50 -25 -52 -26 -275 -23 l-224 3 -47 -28 c-26 -15
-59 -43 -74 -63 -15 -19 -31 -33 -37 -31 -5 1 -20 22 -33 47 -13 24 -28 48
-34 54 -18 18 -11 52 18 77 89 82 186 95 387 54 44 -10 125 -17 180 -17 107
-1 141 9 205 57 l35 26 3 -25 c2 -16 -7 -41 -25 -66z m-1517 54 c36 -28 44
-51 19 -60 -31 -12 -91 57 -68 79 9 10 11 9 49 -19z m598 -53 c24 -20 86 -107
86 -121 0 -7 -11 -3 -26 9 -50 39 -73 22 -28 -20 47 -42 136 -170 130 -185
-14 -37 -60 -4 -100 73 -42 82 -170 185 -211 169 -22 -8 -10 -25 31 -42 52
-22 111 -80 149 -148 19 -34 45 -72 59 -85 28 -27 79 -31 104 -8 10 10 24 17
30 17 23 0 11 -37 -19 -59 -40 -29 -25 -54 16 -27 30 20 49 16 65 -14 9 -18 6
-23 -25 -41 -38 -23 -47 -49 -16 -49 11 0 33 8 49 17 29 17 30 17 55 -13 33
-37 33 -48 2 -68 -39 -26 -30 -37 26 -34 43 3 53 0 66 -19 14 -21 13 -24 -21
-44 -21 -12 -36 -29 -36 -40 0 -25 28 -24 60 1 34 26 56 25 76 -5 16 -25 12
-45 -10 -45 -23 0 -41 -29 -27 -43 9 -9 19 -7 46 7 38 21 65 16 65 -13 0 -12
-9 -21 -25 -25 -17 -4 -25 -13 -25 -27 0 -23 6 -23 67 2 30 12 34 11 71 -22
22 -19 39 -38 38 -43 -1 -5 -33 -16 -71 -23 -118 -24 -183 -72 -205 -151 -13
-49 -13 -55 7 -97 19 -39 71 -75 109 -75 51 0 18 -67 -53 -107 l-40 -23 -47
30 c-47 30 -106 109 -106 142 0 23 -12 23 -52 -2 -38 -23 -107 -26 -141 -7
-12 6 -34 23 -49 36 -35 31 -43 24 -19 -16 28 -45 100 -77 156 -69 25 4 47 11
50 17 12 18 33 8 57 -28 31 -47 96 -111 120 -119 35 -11 19 -32 -33 -43 -88
-19 -182 15 -259 93 -24 25 -51 46 -60 46 -9 0 -29 -14 -46 -31 -81 -86 -224
-156 -364 -178 -162 -27 -272 -8 -418 71 -69 37 -90 45 -81 30 29 -46 187
-119 311 -143 69 -13 170 -13 233 1 28 7 76 17 109 23 48 9 68 20 117 64 84
75 100 72 49 -8 -85 -131 -260 -255 -415 -294 -125 -31 -322 -8 -437 51 -31
16 -38 17 -38 6 0 -13 72 -50 142 -73 51 -17 89 -21 203 -21 132 -1 145 1 223
30 45 17 82 27 82 22 0 -11 -70 -60 -126 -88 -156 -79 -410 -82 -579 -7 -130
57 -253 163 -334 288 -24 37 -49 67 -56 67 -7 0 -19 -10 -27 -22 -14 -21 -17
-21 -33 -8 -46 38 -49 118 -6 164 17 18 20 28 13 47 l-9 23 -14 -22 c-19 -30
-56 -29 -70 2 -9 18 -7 37 8 82 15 49 22 59 39 57 14 -1 25 7 35 26 18 36 72
110 81 111 3 0 11 -15 18 -34 6 -18 20 -42 31 -52 21 -19 76 -23 116 -10 18 7
23 4 29 -18 7 -31 55 -73 92 -83 18 -4 39 1 66 15 l39 22 33 -35 c39 -43 77
-46 117 -10 34 33 36 78 3 143 -30 60 -41 131 -25 166 10 22 9 29 -5 45 -25
28 -24 90 2 112 23 18 28 39 13 55 -5 5 -12 38 -15 74 -14 163 -24 248 -35
285 -26 94 -15 120 101 236 68 68 157 120 264 154 56 17 294 33 395 25 36 -3
73 -11 83 -19z m-654 -6 c20 -22 21 -25 6 -31 -19 -7 -56 21 -56 43 0 21 24
15 50 -12z m4622 -16 c-9 -23 -18 -37 -20 -30 -2 6 -9 8 -14 5 -7 -5 -8 -2 -3
7 8 15 47 59 51 59 1 0 -5 -19 -14 -41z m-4675 -36 c4 -11 -4 -26 -25 -45 -39
-34 -52 -36 -44 -5 14 56 55 87 69 50z m4615 -15 c-7 -7 -12 -8 -12 -2 0 14
12 26 19 19 2 -3 -1 -11 -7 -17z m-85 -80 c-3 -8 -6 -5 -6 6 -1 11 2 17 5 13
3 -3 4 -12 1 -19z m-2799 -104 c34 -4 65 -11 68 -16 10 -16 -53 -338 -91 -464
-34 -111 -63 -174 -78 -168 -16 7 -83 127 -169 304 -66 135 -70 148 -66 200 6
83 36 117 138 154 15 6 83 2 198 -10z m-1892 -162 c5 -25 3 -32 -10 -32 -12 0
-16 10 -16 42 0 48 16 42 26 -10z m-67 -134 c-12 -46 -18 -53 -42 -56 -37 -4
-44 20 -18 57 12 16 21 34 21 40 0 15 33 31 44 21 5 -6 3 -30 -5 -62z m86 -7
c1 -67 -11 -85 -41 -60 -12 10 -14 23 -10 52 16 97 51 102 51 8z m-95 -120 c0
-21 3 -53 6 -70 6 -27 4 -31 -15 -31 -25 0 -107 35 -116 49 -9 15 77 90 103
91 19 0 22 -5 22 -39z m88 23 c16 -5 22 -14 22 -35 0 -15 4 -39 9 -53 18 -45
-45 -62 -68 -18 -16 32 -21 85 -10 98 13 16 15 16 47 8z m4086 -87 c165 -150
327 -263 561 -387 219 -118 323 -179 329 -197 3 -6 -14 -40 -36 -75 -65 -99
-87 -162 -88 -246 0 -88 -19 -142 -51 -142 -20 0 -21 3 -14 80 9 101 -2 236
-21 255 -33 33 -40 9 -39 -138 0 -122 -3 -147 -20 -182 -26 -53 -63 -74 -100
-57 -32 15 -32 26 4 192 26 119 27 202 4 225 -15 16 -17 16 -29 1 -6 -9 -10
-26 -7 -36 8 -32 -17 -181 -38 -221 -23 -46 -64 -79 -96 -79 -18 0 -28 9 -39
35 -22 53 -17 108 17 195 17 44 28 84 24 90 -13 21 -37 9 -51 -27 -58 -145
-65 -155 -110 -135 -32 15 -30 28 7 47 57 30 80 146 38 199 -18 23 -27 26 -88
26 -37 0 -94 -5 -126 -12 -58 -11 -58 -11 -82 18 -38 47 -87 133 -121 217 -31
72 -71 235 -72 284 0 29 107 153 132 153 11 0 61 -37 112 -83z m-4228 -62 c30
-12 35 -19 30 -37 -3 -13 -6 -32 -6 -44 0 -11 -6 -29 -14 -40 -14 -19 -15 -19
-60 6 -29 15 -46 31 -46 43 0 16 46 87 57 87 2 0 20 -7 39 -15z m128 -15 c21
-8 26 -16 26 -43 0 -18 5 -38 10 -43 18 -18 0 -42 -36 -49 -47 -8 -74 2 -74
28 0 34 21 101 34 109 14 10 10 10 40 -2z m3820 -67 c24 -132 76 -270 143
-376 14 -22 22 -41 19 -45 -8 -8 -44 27 -51 49 -4 11 -11 19 -16 19 -17 0 -9
-27 16 -50 40 -38 32 -45 -54 -48 l-79 -2 -17 52 c-9 29 -25 67 -36 84 -27 44
-103 113 -145 130 -40 17 -43 36 -9 58 74 49 178 -12 265 -154 42 -69 39 -65
47 -57 3 4 -1 15 -9 24 -9 10 -25 36 -36 59 -26 51 -105 134 -129 134 -20 1
-63 33 -62 47 0 4 25 28 54 53 30 25 55 48 55 53 0 4 8 7 19 7 14 0 21 -10 25
-37z m-4061 -105 c-17 -24 -33 -53 -37 -65 -12 -38 -29 -44 -69 -26 -20 10
-37 21 -37 27 0 9 35 55 109 142 12 15 16 14 39 -10 l26 -25 -31 -43z m2146
-5 c97 -83 290 -203 327 -203 8 0 14 -4 14 -10 0 -5 -11 -10 -24 -10 -14 0
-28 5 -31 10 -3 6 -14 10 -23 10 -9 0 -63 23 -120 51 -108 54 -232 156 -232
192 0 28 20 20 89 -40z m-2009 27 c4 0 6 -42 5 -92 l-3 -93 -38 1 c-57 1 -91
12 -98 31 -15 37 78 171 110 159 9 -3 19 -6 24 -6z m141 -72 c4 -32 12 -71 19
-88 7 -17 10 -34 6 -37 -12 -12 -78 -31 -91 -27 -24 10 -35 138 -15 189 8 22
15 26 42 23 32 -3 33 -4 39 -60z m3560 -58 c75 -39 131 -112 154 -202 l13 -46
-48 -46 c-43 -41 -55 -61 -74 -118 -12 -38 -24 -23 -65 75 -6 15 -11 81 -12
145 -1 64 -5 128 -9 142 -5 15 -8 -27 -9 -109 -1 -141 5 -173 47 -255 24 -47
25 -53 13 -107 -10 -52 -9 -64 14 -134 32 -99 28 -107 -58 -110 -62 -2 -68 0
-94 28 -45 47 -100 67 -210 73 -143 9 -179 28 -327 172 -146 143 -203 183
-346 245 -108 47 -130 58 -130 63 0 4 10 3 23 -1 30 -9 55 -13 175 -25 146
-15 336 7 477 54 144 50 282 112 317 143 10 9 34 17 53 18 20 1 39 5 42 9 9 8
9 8 54 -14z m-3937 -17 c38 -18 39 -33 2 -33 -24 0 -61 32 -49 43 9 9 7 9 47
-10z m240 -83 c16 -15 -5 -30 -44 -30 -37 0 -70 20 -70 41 0 11 100 1 114 -11z
m186 -19 c0 -26 -24 -43 -57 -39 -39 4 -35 29 7 44 47 17 50 17 50 -5z m-730
-47 c0 -15 -22 -44 -35 -44 -23 0 -29 22 -10 37 19 13 45 18 45 7z m4865 -126
c8 -32 58 -78 87 -78 29 0 17 -21 -30 -53 -23 -16 -42 -34 -42 -41 0 -15 38
-50 63 -59 22 -8 22 -33 1 -41 -9 -4 -31 -4 -49 0 -45 8 -95 -34 -95 -82 0
-29 -4 -34 -27 -39 -70 -15 -106 -31 -129 -58 -13 -16 -24 -35 -24 -44 0 -9
-6 -13 -15 -9 -10 3 -15 -1 -15 -13 0 -11 -3 -26 -6 -35 -4 -9 -1 -16 6 -16 6
0 37 -22 68 -50 31 -27 61 -50 66 -50 6 0 22 -9 36 -19 23 -18 24 -24 21 -103
-1 -46 -6 -87 -11 -93 -4 -5 -11 -21 -15 -35 -24 -83 -106 -220 -133 -220 -35
0 -81 82 -118 211 -62 218 -85 283 -119 337 -19 31 -44 63 -55 70 -12 7 -20
23 -20 38 0 24 3 26 28 20 77 -19 80 -19 112 12 16 17 30 37 30 45 0 25 -44
79 -80 98 -59 31 -90 76 -90 130 0 104 51 173 150 202 8 2 102 3 207 3 l192
-1 6 -27z m-4831 -3 c16 -12 19 -25 17 -67 -3 -63 -7 -71 -30 -58 -27 14 -50
70 -44 108 6 35 25 41 57 17z m1619 -41 c22 -20 65 -47 96 -61 48 -22 67 -25
134 -21 79 5 90 -1 64 -31 -32 -37 -134 -214 -186 -322 -31 -63 -72 -164 -91
-223 l-35 -108 -64 -29 c-36 -16 -89 -47 -117 -69 -61 -46 -80 -51 -69 -17 55
180 64 363 29 589 -6 34 -1 42 58 111 58 69 86 115 116 190 7 15 14 27 18 27
4 0 25 -16 47 -36z m1558 -37 c-1 -12 -15 -9 -19 4 -3 6 1 10 8 8 6 -3 11 -8
11 -12z m213 -35 c72 -58 85 -76 70 -99 -38 -60 -132 7 -147 105 -9 55 2 54
77 -6z m-1365 -30 c20 -15 53 -35 75 -45 45 -21 45 -7 -8 -217 -84 -332 -105
-383 -168 -416 -32 -16 -34 -16 -203 2 -82 9 -87 14 -68 77 28 94 92 246 148
348 68 125 166 279 178 279 5 0 26 -12 46 -28z m-1943 -53 c9 -15 12 -139 3
-145 -12 -7 -59 57 -59 81 0 56 36 96 56 64z m3170 -1 c4 -5 -2 -8 -13 -8 -11
0 -26 -7 -33 -15 -18 -22 -30 -18 -30 8 0 18 5 22 34 22 19 0 38 -3 42 -7z
m-3062 -52 c41 -61 43 -67 17 -90 -47 -42 -102 33 -78 109 5 19 14 35 18 35 4
0 24 -24 43 -54z m4088 -10 c6 -14 37 -41 69 -61 77 -47 88 -67 55 -100 -31
-31 -48 -31 -87 -2 -35 25 -63 75 -73 130 -11 57 14 80 36 33z m-756 -22 c-16
-15 -14 -24 7 -51 6 -9 15 -10 28 -2 15 8 19 6 19 -6 0 -25 -29 -63 -67 -86
-29 -18 -45 -21 -99 -16 -48 3 -71 11 -88 26 -12 12 -26 21 -30 21 -10 0 -66
62 -66 73 0 4 9 7 19 7 20 0 46 20 53 42 3 8 13 5 33 -10 15 -12 24 -22 19
-23 -5 -1 -20 -2 -34 -2 -18 -2 -26 -9 -28 -25 -5 -31 23 -72 48 -72 27 0 60
35 60 63 0 18 8 25 43 34 23 7 53 23 67 38 13 14 26 21 28 16 2 -6 -4 -18 -12
-27z m1452 -35 c7 -23 25 -57 39 -76 37 -49 19 -61 -42 -29 -32 18 -64 26 -96
26 -36 0 -54 5 -69 20 -19 19 -19 23 -6 49 17 32 53 45 96 36 16 -3 31 -1 35
4 13 22 31 10 43 -30z m-1818 -85 c0 -4 -9 1 -20 11 -11 10 -20 25 -20 33 0 9
7 6 20 -11 11 -14 20 -29 20 -33z m-2820 -5 l55 -50 -24 -20 c-32 -27 -58 -24
-92 10 -21 21 -29 39 -29 64 0 63 17 62 90 -4z m3349 34 l21 -18 -29 -44 c-54
-81 -134 -129 -226 -135 -83 -6 -199 40 -260 104 -35 37 -15 40 32 4 84 -64
195 -84 281 -49 47 19 132 106 132 136 0 24 21 24 49 2z m-3499 -13 c10 -5 21
-22 24 -37 4 -16 9 -36 12 -45 8 -27 -32 -23 -61 7 -32 31 -34 85 -3 85 5 0
18 -4 28 -10z m4770 -50 c59 -20 100 -40 100 -50 0 -5 16 -17 36 -26 37 -18
70 -57 60 -72 -3 -5 -18 -7 -34 -4 -18 2 -69 -12 -137 -37 -133 -50 -195 -54
-271 -16 -63 31 -117 85 -108 108 3 9 10 17 15 17 5 0 7 11 3 24 -5 20 0 27
28 42 18 9 44 21 58 25 33 11 206 3 250 -11z m-4482 -65 c15 -8 39 -19 55 -25
32 -11 35 -35 7 -50 -36 -19 -72 -8 -97 29 -39 58 -23 79 35 46z m-78 -44 c6
-16 20 -37 31 -47 44 -40 -3 -63 -68 -34 -44 20 -59 35 -68 72 -6 25 -4 27 32
31 21 2 43 4 49 5 6 1 17 -11 24 -27z m2710 -2 c0 -6 -4 -7 -10 -4 -5 3 -10
11 -10 16 0 6 5 7 10 4 6 -3 10 -11 10 -16z m592 -1 c-7 -7 -12 -8 -12 -2 0
14 12 26 19 19 2 -3 -1 -11 -7 -17z m-3009 -29 c67 -14 75 -35 24 -62 -43 -23
-80 -14 -108 24 -23 33 -19 63 8 55 10 -2 44 -10 76 -17z m3625 -44 c-3 -3 -9
2 -12 12 -6 14 -5 15 5 6 7 -7 10 -15 7 -18z m-3725 -19 c45 -41 47 -56 6 -56
-34 0 -68 15 -86 39 -17 22 -16 26 10 39 31 15 29 16 70 -22z m2693 3 c8 -14
-14 -29 -32 -22 -7 2 -15 11 -18 19 -7 17 39 20 50 3z m279 -10 c0 -7 -8 -15
-17 -17 -18 -3 -25 18 -11 32 10 10 28 1 28 -15z m795 -45 c0 -6 7 -25 15 -40
8 -16 15 -43 15 -59 0 -17 4 -35 9 -40 8 -9 24 -65 38 -137 3 -15 11 -33 19
-39 8 -6 14 -18 14 -26 0 -9 14 -37 31 -64 39 -59 101 -103 134 -95 13 3 27 2
30 -4 9 -15 -46 -89 -72 -96 -56 -15 -145 52 -179 134 -9 20 -24 53 -34 73
-12 22 -15 40 -10 49 5 8 5 22 -1 32 -5 9 -8 21 -7 25 1 4 -4 25 -11 45 -7 21
-10 48 -8 60 l4 23 8 -22 c4 -13 11 -23 16 -23 14 0 10 43 -5 63 -11 13 -11
26 -4 51 8 26 6 40 -11 76 -11 24 -21 49 -21 54 1 15 30 -25 30 -40z m-3869
14 c5 -9 25 -26 45 -39 32 -19 40 -20 76 -10 22 7 42 11 44 9 2 -2 -7 -25 -21
-51 -13 -26 -32 -79 -41 -117 -10 -38 -24 -72 -30 -74 -7 -3 -65 30 -129 72
-95 63 -115 81 -111 97 19 78 30 111 41 120 21 17 115 12 126 -7z m2949 9 c0
-16 -20 -37 -36 -37 -14 0 -27 28 -18 41 8 14 54 11 54 -4z m-2682 -30 c3 -12
-3 -17 -22 -17 -25 0 -35 18 -19 34 12 12 38 2 41 -17z m47 -46 c7 -12 -40
-49 -71 -57 -33 -8 -64 4 -64 26 0 19 10 24 70 33 46 8 59 7 65 -2z m61 -67
c48 -52 45 -69 -16 -84 -87 -21 -210 9 -210 51 0 20 4 21 41 15 41 -7 118 18
133 43 10 16 14 14 52 -25z m3891 -131 c-3 -10 -5 -2 -5 17 0 19 2 27 5 18 2
-10 2 -26 0 -35z m-4080 22 c44 -19 135 -19 196 -1 49 15 57 13 57 -15 0 -27
-97 -53 -170 -46 -68 6 -150 40 -150 61 0 20 21 20 67 1z m4038 -139 c-14 -25
-23 -46 -20 -46 3 0 1 -9 -5 -20 -13 -24 -40 -27 -40 -4 0 9 11 29 25 46 14
16 25 36 25 44 0 8 4 14 9 14 5 0 12 15 16 33 8 31 8 31 12 6 3 -16 -6 -45
-22 -73z m-40 -353 c0 -127 6 -166 20 -124 7 22 20 27 29 12 9 -14 -11 -61
-28 -67 -9 -3 -34 7 -58 23 -41 28 -42 30 -40 78 5 87 20 163 38 190 31 48 39
26 39 -112z m-99 -56 c7 -19 -13 -67 -29 -67 -30 0 -37 22 -14 51 25 31 35 35
43 16z m-826 -342 c11 -14 7 -22 -30 -57 l-44 -40 -23 26 c-24 28 -22 52 5 74
22 17 77 15 92 -3z"/>
<path d="M7395 12880 c-3 -6 1 -7 9 -4 18 7 21 14 7 14 -6 0 -13 -4 -16 -10z"/>
<path d="M7160 12720 c-9 -6 -10 -10 -3 -10 6 0 15 5 18 10 8 12 4 12 -15 0z"/>
<path d="M11291 12523 c-15 -97 -38 -206 -53 -256 -6 -20 -9 -40 -6 -42 18
-18 96 348 79 368 -4 4 -13 -28 -20 -70z"/>
<path d="M11750 12491 c0 -5 7 -26 16 -47 66 -156 99 -382 83 -560 -11 -119
-43 -257 -89 -376 -37 -96 -37 -105 0 -47 31 51 70 157 95 259 22 93 31 319
16 432 -11 89 -73 309 -94 336 -11 14 -27 16 -27 3z"/>
<path d="M11306 12137 c-17 -50 -33 -99 -37 -107 -130 -273 -197 -388 -330
-567 -65 -88 -239 -272 -359 -379 -25 -22 -52 -49 -60 -59 -28 -34 40 8 105
67 185 164 396 421 495 603 83 150 150 291 150 312 0 6 6 24 14 40 31 62 60
155 55 172 -2 6 -17 -31 -33 -82z"/>
<path d="M11212 12180 c0 -14 2 -19 5 -12 2 6 2 18 0 25 -3 6 -5 1 -5 -13z"/>
<path d="M7235 12160 c-3 -5 14 -33 38 -63 145 -178 221 -378 248 -649 7 -70
16 -125 21 -122 11 7 10 159 -3 251 -13 95 -67 262 -114 352 -38 71 -161 241
-175 241 -5 0 -12 -4 -15 -10z"/>
<path d="M11186 12124 c-4 -9 -4 -19 -1 -22 2 -3 7 3 11 12 4 9 4 19 1 22 -2
3 -7 -3 -11 -12z"/>
<path d="M10858 10745 c-4 -22 -7 -83 -7 -135 1 -92 2 -93 10 -40 12 69 8 238
-3 175z"/>
<path d="M7885 10598 c-25 -77 -41 -115 -93 -220 -2 -5 3 -8 12 -8 29 0 99
166 111 265 4 30 6 55 4 55 -2 0 -17 -41 -34 -92z"/>
<path d="M11191 10620 c-15 -50 -30 -189 -29 -270 l1 -105 8 115 c4 63 13 140
19 171 7 31 10 64 7 75 -2 10 -5 17 -6 14z"/>
<path d="M10860 10429 c0 -30 4 -60 9 -68 6 -9 7 9 4 50 -7 80 -13 89 -13 18z"/>
<path d="M8093 10416 c-85 -21 -199 -84 -182 -101 3 -2 33 10 68 26 104 50
211 72 316 66 50 -3 98 -8 108 -12 9 -4 17 -3 17 3 0 31 -221 43 -327 18z"/>
<path d="M10892 10240 c0 -14 2 -19 5 -12 2 6 2 18 0 25 -3 6 -5 1 -5 -13z"/>
<path d="M11162 10215 c0 -16 2 -22 5 -12 2 9 2 23 0 30 -3 6 -5 -1 -5 -18z"/>
<path d="M11181 9964 c0 -11 3 -14 6 -6 3 7 2 16 -1 19 -3 4 -6 -2 -5 -13z"/>
<path d="M11211 9834 c0 -11 3 -14 6 -6 3 7 2 16 -1 19 -3 4 -6 -2 -5 -13z"/>
<path d="M11250 9691 c0 -6 5 -13 10 -16 6 -3 10 1 10 9 0 9 -4 16 -10 16 -5
0 -10 -4 -10 -9z"/>
<path d="M11330 9519 c0 -8 10 -25 21 -39 l20 -25 -17 35 c-20 43 -24 47 -24
29z"/>
<path d="M11373 9437 c9 -24 76 -126 100 -152 10 -11 26 -32 35 -47 9 -16 20
-28 24 -28 10 0 -10 36 -35 64 -10 12 -41 55 -69 96 -55 83 -64 94 -55 67z"/>
<path d="M10090 9209 c-21 -11 -28 -18 -18 -19 10 0 32 9 50 20 41 25 15 24
-32 -1z"/>
<path d="M10010 9170 c-13 -9 -13 -10 0 -10 8 0 22 5 30 10 13 9 13 10 0 10
-8 0 -22 -5 -30 -10z"/>
<path d="M9948 9143 c7 -3 16 -2 19 1 4 3 -2 6 -13 5 -11 0 -14 -3 -6 -6z"/>
<path d="M9850 9120 c-12 -8 -10 -10 10 -9 14 0 34 4 45 9 17 7 16 9 -10 9
-16 0 -37 -4 -45 -9z"/>
<path d="M9775 9100 l-30 -8 30 -1 c17 0 37 4 45 9 13 9 13 10 0 9 -8 -1 -28
-5 -45 -9z"/>
<path d="M8558 8554 c-5 -4 -8 -21 -8 -38 1 -26 2 -28 11 -13 11 19 8 63 -3
51z"/>
<path d="M12558 11308 c-201 -272 -323 -463 -426 -665 -61 -118 -142 -316
-142 -345 0 -10 -5 -28 -10 -39 -31 -58 -63 -274 -64 -434 -1 -152 8 -218 45
-330 15 -48 18 -52 13 -20 -3 22 -10 63 -16 90 -5 28 -12 118 -15 201 -12 353
90 680 342 1106 37 62 141 220 207 314 43 62 78 116 78 120 0 4 12 20 27 36
14 15 24 30 21 34 -4 3 -30 -27 -60 -68z"/>
<path d="M12734 11065 c7 -78 36 -289 41 -300 8 -17 -5 176 -16 245 -15 86
-30 122 -25 55z"/>
<path d="M12783 10695 c0 -33 2 -45 4 -27 2 18 2 45 0 60 -2 15 -4 0 -4 -33z"/>
<path d="M12762 10444 c-1 -23 -4 -63 -7 -90 -5 -41 -4 -45 5 -25 6 14 9 54 7
90 -2 40 -4 49 -5 25z"/>
<path d="M12738 10264 c-5 -4 -8 -21 -8 -38 1 -26 2 -28 11 -13 11 19 8 63 -3
51z"/>
<path d="M12711 10145 c-1 -11 -4 -31 -6 -45 l-6 -25 11 25 c6 13 9 33 7 45
-4 19 -4 19 -6 0z"/>
<path d="M12682 10020 c0 -14 2 -19 5 -12 2 6 2 18 0 25 -3 6 -5 1 -5 -13z"/>
<path d="M12662 9960 c0 -14 2 -19 5 -12 2 6 2 18 0 25 -3 6 -5 1 -5 -13z"/>
<path d="M12636 9905 c-9 -26 -7 -32 5 -12 6 10 9 21 6 23 -2 3 -7 -2 -11 -11z"/>
<path d="M12610 9830 c-6 -11 -8 -20 -6 -20 3 0 10 9 16 20 6 11 8 20 6 20 -3
0 -10 -9 -16 -20z"/>
<path d="M12585 9780 c-4 -12 -5 -24 -2 -27 3 -2 8 5 12 17 4 12 5 24 2 27 -3
2 -8 -5 -12 -17z"/>
<path d="M12560 9725 c0 -8 2 -15 4 -15 2 0 6 7 10 15 3 8 1 15 -4 15 -6 0
-10 -7 -10 -15z"/>
<path d="M12524 9653 c-9 -21 -24 -46 -32 -56 -8 -9 -12 -20 -9 -24 8 -8 6
-11 41 55 15 29 26 56 23 58 -3 3 -13 -12 -23 -33z"/>
<path d="M12461 9534 c0 -11 3 -14 6 -6 3 7 2 16 -1 19 -3 4 -6 -2 -5 -13z"/>
<path d="M12072 9390 c0 -19 2 -27 5 -17 2 9 2 25 0 35 -3 9 -5 1 -5 -18z"/>
<path d="M12087 9295 c3 -33 10 -67 15 -75 12 -19 1 81 -12 113 -6 15 -7 3 -3
-38z"/>
<path d="M12124 9155 c5 -61 53 -185 123 -323 43 -85 162 -262 176 -262 10 0
9 28 -1 32 -15 5 -78 98 -136 198 -60 104 -105 204 -142 320 -19 60 -23 67
-20 35z"/>
<path d="M9031 12597 c-25 -12 -47 -28 -49 -34 -5 -18 35 -16 42 2 3 8 12 15
19 15 8 0 22 9 32 20 23 26 11 25 -44 -3z"/>
<path d="M9230 12415 c0 -8 -4 -15 -10 -15 -5 0 -15 -10 -21 -22 -12 -22 -11
-22 7 -8 44 35 58 60 34 60 -5 0 -10 -7 -10 -15z"/>
<path d="M9230 12352 c0 -11 7 -23 16 -26 11 -4 15 0 12 16 -4 28 -28 36 -28
10z"/>
<path d="M9152 11248 c6 -18 28 -21 28 -4 0 9 -7 16 -16 16 -9 0 -14 -5 -12
-12z"/>
<path d="M9190 11211 c0 -5 5 -13 10 -16 6 -3 10 -2 10 4 0 5 -4 13 -10 16 -5
3 -10 2 -10 -4z"/>
<path d="M9136 11171 c-10 -15 12 -51 29 -51 8 0 15 5 15 11 0 6 6 9 14 6 20
-8 27 3 12 19 -19 18 -62 28 -70 15z"/>
<path d="M6750 12033 c0 -5 23 -21 51 -38 28 -16 77 -56 110 -87 61 -59 75
-63 37 -12 -35 46 -115 114 -133 114 -4 0 -13 7 -21 15 -16 16 -44 20 -44 8z"/>
<path d="M9490 10944 c0 -8 5 -12 10 -9 6 3 10 10 10 16 0 5 -4 9 -10 9 -5 0
-10 -7 -10 -16z"/>
<path d="M7242 9884 c-39 -16 -62 -37 -96 -88 -35 -52 -34 -100 1 -65 7 7 16
0 31 -25 43 -73 137 -103 215 -68 25 11 53 32 62 46 10 14 23 26 31 26 15 0
44 38 44 59 0 12 -3 12 -12 3 -19 -19 -24 -16 -93 48 -35 32 -76 62 -92 65
-15 4 -35 8 -44 9 -9 2 -30 -3 -47 -10z m114 -33 c29 -23 22 -31 -31 -31 -25
0 -62 -10 -91 -25 -27 -14 -52 -25 -56 -25 -21 0 -4 32 34 64 49 42 104 49
144 17z m-120 -127 c8 -20 13 -39 9 -42 -11 -11 -58 46 -52 62 10 26 27 18 43
-20z m228 20 c9 -22 8 -24 -9 -24 -8 0 -15 9 -15 20 0 24 15 27 24 4z"/>
<path d="M7495 9830 c3 -5 8 -10 11 -10 2 0 4 5 4 10 0 6 -5 10 -11 10 -5 0
-7 -4 -4 -10z"/>
<path d="M7451 9617 c-14 -16 -45 -43 -70 -58 -27 -18 -38 -29 -27 -29 24 0
71 34 102 76 33 43 28 53 -5 11z"/>
<path d="M7210 9525 c14 -8 34 -14 45 -14 16 0 17 1 5 8 -8 5 -28 11 -45 15
l-30 6 25 -15z"/>
<path d="M6326 8948 c7 -44 11 -54 18 -47 8 8 -6 89 -15 89 -5 0 -6 -19 -3
-42z"/>
<path d="M6740 8733 c0 -23 114 -110 195 -147 22 -11 48 -23 57 -27 10 -5 30
-8 45 -8 21 1 23 3 8 6 -49 12 -166 74 -220 118 -87 70 -85 68 -85 58z"/>
<path d="M10728 8733 c-31 -38 -50 -113 -29 -113 5 0 11 13 14 29 3 15 17 42
31 59 15 16 26 33 26 36 0 13 -28 5 -42 -11z"/>
<path d="M10800 8699 c-32 -13 -38 -23 -38 -70 -1 -44 14 -50 42 -18 14 16 20
19 26 9 5 -8 10 2 15 28 10 60 1 69 -45 51z"/>
<path d="M10680 8292 c0 -5 18 -17 40 -27 31 -14 43 -16 52 -7 9 9 7 12 -8 12
-11 0 -29 7 -40 15 -21 16 -44 20 -44 7z"/>
<path d="M9696 8471 c-21 -23 -18 -60 5 -74 13 -8 24 -6 43 6 35 23 35 64 0
77 -32 13 -28 13 -48 -9z"/>
<path d="M11235 8275 c-57 -26 -126 -39 -200 -37 l-50 1 48 -14 c59 -16 141
-7 215 25 58 25 87 51 56 49 -11 0 -41 -11 -69 -24z"/>
<path d="M10945 8260 c3 -5 8 -10 11 -10 2 0 4 5 4 10 0 6 -5 10 -11 10 -5 0
-7 -4 -4 -10z"/>
<path d="M10665 7770 c-7 -12 2 -30 16 -30 12 0 12 27 0 35 -5 3 -12 1 -16 -5z"/>
<path d="M6166 11335 c-3 -8 -1 -15 4 -15 6 0 10 7 10 15 0 8 -2 15 -4 15 -2
0 -6 -7 -10 -15z"/>
<path d="M6123 11245 c-3 -9 -3 -18 -1 -21 3 -3 8 4 11 16 6 23 -1 27 -10 5z"/>
<path d="M6021 10944 c0 -11 3 -14 6 -6 3 7 2 16 -1 19 -3 4 -6 -2 -5 -13z"/>
<path d="M5995 10854 c-4 -16 -8 -35 -11 -41 -2 -7 1 -13 6 -13 10 0 25 68 17
77 -3 3 -9 -8 -12 -23z"/>
<path d="M5977 10780 c-14 -37 -37 -198 -48 -338 -10 -123 -10 -183 1 -300 21
-242 25 -227 25 95 1 250 4 329 19 420 17 102 18 164 3 123z"/>
<path d="M6071 10577 c-2 -28 18 -57 37 -57 14 0 14 3 -5 18 -11 9 -23 26 -26
37 -4 17 -5 17 -6 2z"/>
<path d="M6360 10488 c-8 -18 -27 -41 -42 -51 -25 -19 -28 -19 -52 -3 -25 16
-26 16 -26 -8 0 -31 28 -41 66 -24 37 15 74 48 74 64 0 7 14 14 32 16 30 3 31
4 14 21 -26 26 -49 20 -66 -15z"/>
<path d="M6746 10174 c43 -15 90 -60 111 -104 7 -15 12 -19 12 -10 1 25 -48
94 -81 113 -16 9 -42 17 -56 16 -23 0 -21 -3 14 -15z"/>
<path d="M5972 9835 c0 -16 2 -22 5 -12 2 9 2 23 0 30 -3 6 -5 -1 -5 -18z"/>
<path d="M6195 9690 c-3 -5 18 -11 47 -15 74 -11 109 -28 157 -80 44 -48 75
-53 45 -7 -30 48 -67 82 -89 82 -11 0 -26 5 -32 11 -13 13 -121 21 -128 9z"/>
<path d="M11266 8093 c-9 -32 -22 -76 -28 -98 -13 -44 -52 -153 -73 -200 -24
-53 -42 -97 -89 -220 -26 -66 -51 -128 -56 -137 -6 -10 -10 -26 -10 -35 1 -10
10 2 22 27 56 120 68 150 68 164 0 8 4 17 8 20 5 3 42 89 83 191 85 215 74
205 234 205 127 1 87 21 -45 23 -60 1 -100 6 -100 12 0 5 5 28 10 50 14 64 -5
62 -24 -2z"/>
<path d="M11431 7624 c0 -11 3 -14 6 -6 3 7 2 16 -1 19 -3 4 -6 -2 -5 -13z"/>
<path d="M11403 7573 c-4 -10 -40 -58 -80 -107 -40 -50 -73 -97 -72 -106 0
-10 5 -8 17 9 9 13 47 60 84 104 38 45 68 89 68 99 0 23 -9 23 -17 1z"/>
<path d="M6095 4648 c-108 -180 -140 -240 -138 -264 2 -51 43 -136 84 -176 34
-34 44 -38 87 -38 80 0 100 21 240 252 140 234 151 266 112 335 -26 45 -77 83
-145 106 -96 33 -84 44 -240 -215z"/>
</g>
</svg>
